<?xml version="1.0" encoding="UTF-8" standalone="no"?>
<!-- Created with Inkscape (http://www.inkscape.org/) -->

<svg
   xmlns:dc="http://purl.org/dc/elements/1.1/"
   xmlns:cc="http://creativecommons.org/ns#"
   xmlns:rdf="http://www.w3.org/1999/02/22-rdf-syntax-ns#"
   xmlns:svg="http://www.w3.org/2000/svg"
   xmlns="http://www.w3.org/2000/svg"
   xmlns:sodipodi="http://sodipodi.sourceforge.net/DTD/sodipodi-0.dtd"
   xmlns:inkscape="http://www.inkscape.org/namespaces/inkscape"
   width="210mm"
   height="297mm"
   viewBox="0 0 210 297"
   version="1.1"
   id="svg79"
   inkscape:version="0.92.1 r15371"
   sodipodi:docname="logo-studio.svg">
  <defs
     id="defs73" />
  <sodipodi:namedview
     id="base"
     pagecolor="#ffffff"
     bordercolor="#666666"
     borderopacity="1.0"
     inkscape:pageopacity="0.0"
     inkscape:pageshadow="2"
     inkscape:zoom="1.4"
     inkscape:cx="-215.71429"
     inkscape:cy="560"
     inkscape:document-units="mm"
     inkscape:current-layer="layer1"
     showgrid="false"
     inkscape:window-width="3840"
     inkscape:window-height="2004"
     inkscape:window-x="-16"
     inkscape:window-y="-16"
     inkscape:window-maximized="1" />
  <metadata
     id="metadata76">
    <rdf:RDF>
      <cc:Work
         rdf:about="">
        <dc:format>image/svg+xml</dc:format>
        <dc:type
           rdf:resource="http://purl.org/dc/dcmitype/StillImage" />
        <dc:title></dc:title>
      </cc:Work>
    </rdf:RDF>
  </metadata>
  <g
     inkscape:label="Layer 1"
     inkscape:groupmode="layer"
     id="layer1">
    <g
       id="g112"
       transform="translate(-336.02083,-18.89881)">
      <path
         style="fill:#feeac8;stroke-width:0.26458332"
         d="m 83.043987,158.94971 v -1.32292 H 80.398153 77.75232 v -1.32291 -1.32292 h -1.322916 -1.322917 v -1.32292 -1.32291 h -1.322916 -1.322917 v -2.64584 -2.64583 h -1.322917 -1.322916 v -6.61458 -6.61459 h -1.322917 -1.322916 v -1.32292 -1.32291 h -1.322917 -1.322917 v -1.32292 -1.32292 h -1.322916 -1.322917 v -2.64583 -2.64583 h 1.322917 1.322916 v -3.96875 -3.96875 h 1.322917 1.322917 V 104.71012 94.126789 h -1.322917 -1.322917 v -2.645834 -2.645833 h 1.322917 1.322917 v -1.322917 -1.322916 h 2.645833 2.645833 v -1.322917 -1.322917 h 2.645833 2.645833 v 1.322917 1.322917 h 1.322917 1.322916 v 5.291666 5.291667 h 1.322917 1.322917 v -2.645833 -2.645834 h 1.322916 1.322917 v -1.322916 -1.322917 h 1.322916 1.322917 v -1.322917 -1.322916 h 1.322916 1.322917 v -1.322917 -1.322917 h 1.322917 1.322916 v -1.322917 -1.322917 h 10.583331 10.58333 v 1.322917 1.322917 h 1.32292 1.32292 v 1.322917 1.322917 h 1.32291 1.32292 v 1.322916 1.322917 h 2.64583 2.64584 v 1.322917 1.322916 h 1.32291 1.32292 v 1.322917 1.322917 h 1.32292 1.32291 v 1.322917 1.322916 h 1.32292 1.32292 v 2.645834 2.645834 h 2.64583 2.64583 v 1.32292 1.32291 h 2.64584 2.64583 v 1.32292 1.32292 h 2.64583 2.64584 v 1.32291 1.32292 h 1.32291 1.32292 v 5.29167 5.29166 h -1.32292 -1.32291 v 1.32292 1.32292 h -3.96875 -3.96875 v 1.32291 1.32292 h 1.32291 1.32292 v 10.58333 10.58334 h -1.32292 -1.32291 v 2.64583 2.64584 h -1.32292 -1.32292 v 1.32291 1.32292 h -1.32291 -1.32292 v 1.32292 1.32291 h -2.64583 -2.64584 v 1.32292 1.32292 h -23.8125 -23.812493 z"
         id="path138"
         inkscape:connector-curvature="0" />
      <path
         style="fill:#f4c4a6;stroke-width:0.26458332"
         d="m 83.043987,158.94971 v -1.32292 H 80.398153 77.75232 v -1.32291 -1.32292 h -1.322916 -1.322917 v -1.32292 -1.32291 h -1.322916 -1.322917 v -2.64584 -2.64583 h -1.322917 -1.322916 v -6.61458 -6.61459 h -1.322917 -1.322916 v -1.32292 -1.32291 h -1.322917 -1.322917 v -1.32292 -1.32292 h -1.322916 -1.322917 v -2.64583 -2.64583 h 1.322917 1.322916 v -3.96875 -3.96875 h 1.322917 1.322917 V 104.71012 94.126789 h -1.322917 -1.322917 v -2.645834 -2.645833 h 1.322917 1.322917 v -1.322917 -1.322916 h 2.645833 2.645833 v -1.322917 -1.322917 h 2.645833 2.645833 v 1.322917 1.322917 h 1.322917 1.322916 v 5.291666 5.291667 h 1.322917 1.322917 v -2.645833 -2.645834 h 1.322916 1.322917 v -1.322916 -1.322917 h 1.322916 1.322917 v -1.322917 -1.322916 h 1.322916 1.322917 v -1.322917 -1.322917 h 1.322917 1.322916 v -1.322917 -1.322917 h 10.583331 10.58333 v 1.322917 1.322917 h 1.32292 1.32292 v 1.322917 1.322917 h 1.32291 1.32292 v 1.322916 1.322917 h 2.64583 2.64584 v 1.322917 1.322916 h 1.32291 1.32292 v 1.322917 1.322917 h 1.32292 1.32291 v 1.322917 1.322916 h 1.32292 1.32292 v 2.645834 2.645834 h 2.64583 2.64583 v 1.32292 1.32291 h 2.64584 2.64583 v 1.32292 1.32292 h 2.64583 2.64584 v 1.32291 1.32292 h 1.32291 1.32292 v 5.29167 5.29166 h -1.32292 -1.32291 v 1.32292 1.32292 h -3.96875 -3.96875 v 1.32291 1.32292 h 1.32291 1.32292 v 10.58333 10.58334 h -1.32292 -1.32291 v 2.64583 2.64584 h -1.32292 -1.32292 v 1.32291 1.32292 h -1.32291 -1.32292 v 1.32292 1.32291 h -2.64583 -2.64584 v 1.32292 1.32292 h -23.8125 -23.812493 z m 15.874999,-10.58333 v -9.26042 h 1.322914 1.32292 v -1.32292 -1.32292 h 6.61458 6.61458 v 1.32292 1.32292 h 1.32292 1.32292 v 9.26042 9.26041 h 6.61458 6.61458 v -1.32291 -1.32292 h 2.64584 2.64583 v -6.61458 -6.61459 h -6.61458 -6.61459 v -6.61458 -6.61459 h 1.32292 1.32292 v -1.32291 -1.32292 h -9.26042 -9.26042 v 1.32292 1.32291 h -3.96874 -3.968754 v 1.32292 1.32292 h -2.645834 -2.645833 v 6.61458 6.61459 h -7.937499 -7.9375 v 5.29166 5.29167 h 2.645833 2.645834 v 1.32292 1.32291 h 7.937499 7.9375 z"
         id="path136"
         inkscape:connector-curvature="0" />
      <path
         style="fill:#fee256;stroke-width:0.26458332"
         d="m 83.043987,158.94971 v -1.32292 H 80.398153 77.75232 v -1.32291 -1.32292 h -1.322916 -1.322917 v -1.32292 -1.32291 h -1.322916 -1.322917 v -2.64584 -2.64583 h -1.322917 -1.322916 v -6.61458 -6.61459 h -1.322917 -1.322916 v -1.32292 -1.32291 h -1.322917 -1.322917 v -1.32292 -1.32292 h -1.322916 -1.322917 v -2.64583 -2.64583 h 1.322917 1.322916 v -3.96875 -3.96875 h 1.322917 1.322917 V 104.71012 94.126789 h -1.322917 -1.322917 v -2.645834 -2.645833 h 1.322917 1.322917 v -1.322917 -1.322916 h 2.645833 2.645833 v -1.322917 -1.322917 h 2.645833 2.645833 v 1.322917 1.322917 h 1.322917 1.322916 v 5.291666 5.291667 h 1.322917 1.322917 v -2.645833 -2.645834 h 1.322916 1.322917 v -1.322916 -1.322917 h 1.322916 1.322917 v -1.322917 -1.322916 h 1.322916 1.322917 v -1.322917 -1.322917 h 1.322917 1.322916 v -1.322917 -1.322917 h 10.583331 10.58333 v 1.322917 1.322917 h 1.32292 1.32292 v 1.322917 1.322917 h 1.32291 1.32292 v 1.322916 1.322917 h 2.64583 2.64584 v 1.322917 1.322916 h 1.32291 1.32292 v 1.322917 1.322917 h 1.32292 1.32291 v 1.322917 1.322916 h 1.32292 1.32292 v 2.645834 2.645834 h 2.64583 2.64583 v 1.32292 1.32291 h 2.64584 2.64583 v 1.32292 1.32292 h 2.64583 2.64584 v 1.32291 1.32292 h 1.32291 1.32292 v 5.29167 5.29166 h -1.32292 -1.32291 v 1.32292 1.32292 h -3.96875 -3.96875 v 1.32291 1.32292 h 1.32291 1.32292 v 10.58333 10.58334 h -1.32292 -1.32291 v 2.64583 2.64584 h -1.32292 -1.32292 v 1.32291 1.32292 h -1.32291 -1.32292 v 1.32292 1.32291 h -2.64583 -2.64584 v 1.32292 1.32292 h -23.8125 -23.812493 z m 15.874999,-10.58333 v -9.26042 h 1.322914 1.32292 v -1.32292 -1.32292 h 6.61458 6.61458 v 1.32292 1.32292 h 1.32292 1.32292 v 9.26042 9.26041 h 6.61458 6.61458 v -1.32291 -1.32292 h 2.64584 2.64583 v -1.32292 -1.32291 h 1.32292 1.32291 v -2.64584 -2.64583 h 1.32292 1.32292 v -10.58334 -10.58333 h -1.32292 -1.32292 v -1.32292 -1.32291 h -9.26041 -9.26042 v -1.32292 -1.32292 h -2.64583 -2.64584 v -1.32291 -1.32292 h -1.32291 -1.32292 v 1.32292 1.32291 h -6.61458 -6.614584 v 1.32292 1.32292 h -1.322917 -1.322917 v 1.32291 1.32292 h -2.645833 -2.645833 v 2.64583 2.64584 h 1.322917 1.322916 v 6.61458 6.61459 h -6.614583 -6.614583 v -5.29167 -5.29167 h -3.968749 -3.96875 v 6.61459 6.61458 h 1.322917 1.322916 v 2.64583 2.64584 h 1.322917 1.322916 v 1.32291 1.32292 h 2.645833 2.645834 v 1.32292 1.32291 h 7.937499 7.9375 z m 23.812494,-13.22917 v -6.61459 h 1.32292 1.32292 v -1.32291 -1.32292 h 3.96875 3.96875 v 1.32292 1.32291 h 1.32291 1.32292 v 6.61459 6.61458 h -6.61458 -6.61459 z"
         id="path134"
         inkscape:connector-curvature="0" />
      <path
         style="fill:#fe89aa;stroke-width:0.26458332"
         d="m 83.043987,158.94971 v -1.32292 H 80.398153 77.75232 v -1.32291 -1.32292 h -1.322916 -1.322917 v -1.32292 -1.32291 h -1.322916 -1.322917 v -2.64584 -2.64583 h -1.322917 -1.322916 v -6.61458 -6.61459 h -1.322917 -1.322916 v -1.32292 -1.32291 h -1.322917 -1.322917 v -1.32292 -1.32292 h -1.322916 -1.322917 v -2.64583 -2.64583 h 1.322917 1.322916 v -3.96875 -3.96875 h 1.322917 1.322917 V 104.71012 94.126789 h -1.322917 -1.322917 v -2.645834 -2.645833 h 1.322917 1.322917 v -1.322917 -1.322916 h 2.645833 2.645833 v -1.322917 -1.322917 h 2.645833 2.645833 v 1.322917 1.322917 h 1.322917 1.322916 v 5.291666 5.291667 h 1.322917 1.322917 v -2.645833 -2.645834 h 1.322916 1.322917 v -1.322916 -1.322917 h 1.322916 1.322917 v -1.322917 -1.322916 h 1.322916 1.322917 v -1.322917 -1.322917 h 1.322917 1.322916 v -1.322917 -1.322917 h 10.583331 10.58333 v 1.322917 1.322917 h 1.32292 1.32292 v 1.322917 1.322917 h 1.32291 1.32292 v 1.322916 1.322917 h 2.64583 2.64584 v 1.322917 1.322916 h 1.32291 1.32292 v 1.322917 1.322917 h 1.32292 1.32291 v 1.322917 1.322916 h 1.32292 1.32292 v 2.645834 2.645834 h 2.64583 2.64583 v 1.32292 1.32291 h 2.64584 2.64583 v 1.32292 1.32292 h 2.64583 2.64584 v 1.32291 1.32292 h 1.32291 1.32292 v 5.29167 5.29166 h -1.32292 -1.32291 v 1.32292 1.32292 h -3.96875 -3.96875 v 1.32291 1.32292 h 1.32291 1.32292 v 10.58333 10.58334 h -1.32292 -1.32291 v 2.64583 2.64584 h -1.32292 -1.32292 v 1.32291 1.32292 h -1.32291 -1.32292 v 1.32292 1.32291 h -2.64583 -2.64584 v 1.32292 1.32292 h -23.8125 -23.812493 z m 15.874999,-10.58333 v -9.26042 h 1.322914 1.32292 v -1.32292 -1.32292 h 6.61458 6.61458 v 1.32292 1.32292 h 1.32292 1.32292 v 9.26042 9.26041 h 6.61458 6.61458 v -1.32291 -1.32292 h 2.64584 2.64583 v -1.32292 -1.32291 h 1.32292 1.32291 v -2.64584 -2.64583 h 1.32292 1.32292 v -10.58334 -10.58333 h -1.32292 -1.32292 v -1.32292 -1.32291 h -9.26041 -9.26042 v -1.32292 -1.32292 h -2.64583 -2.64584 v -1.32291 -1.32292 h -1.32291 -1.32292 v 1.32292 1.32291 h -6.61458 -6.614584 v 1.32292 1.32292 h -1.322917 -1.322917 v 1.32291 1.32292 h -2.645833 -2.645833 v 2.64583 2.64584 h 1.322917 1.322916 v 6.61458 6.61459 h -6.614583 -6.614583 v -5.29167 -5.29167 h -3.968749 -3.96875 v 6.61459 6.61458 h 1.322917 1.322916 v 2.64583 2.64584 h 1.322917 1.322916 v 1.32291 1.32292 h 2.645833 2.645834 v 1.32292 1.32291 h 7.937499 7.9375 z m 23.812494,-13.22917 v -6.61459 h 1.32292 1.32292 v -1.32291 -1.32292 h 3.96875 3.96875 v 1.32292 1.32291 h 1.32291 1.32292 v 6.61459 6.61458 h -6.61458 -6.61459 z m -7.9375,15.875 v -1.32292 h -1.32291 -1.32292 v 1.32292 1.32292 h 1.32292 1.32291 z m -31.749993,-23.8125 v -1.32292 h -3.96875 -3.96875 v -1.32292 -1.32291 h -1.322916 -1.322917 v -1.32292 -1.32292 h -1.322917 -1.322916 v 2.64584 2.64583 h 1.322916 1.322917 v 1.32292 1.32291 h 5.291666 5.291667 z m 7.937499,-7.9375 v -1.32292 h -1.322917 -1.322916 v 1.32292 1.32291 h 1.322916 1.322917 z m 55.562494,0 v -1.32292 h 1.32292 1.32292 v -3.96875 -3.96875 h -1.32292 -1.32292 v 1.32292 1.32291 h -1.32291 -1.32292 v -1.32291 -1.32292 h -2.64583 -2.64584 v -1.32292 -1.32291 h -1.32291 -1.32292 v -1.32292 -1.32292 h -1.32292 -1.32291 v -1.32291 -1.32292 h -1.32292 -1.32292 v -1.32292 -1.322914 h -2.64583 -2.64583 v -2.645834 -2.645833 h -1.32292 -1.32292 v -1.322917 -1.322917 h -1.32291 -1.32292 v -1.322916 -1.322917 h -1.32292 -1.32291 v -1.322917 -1.322916 h -1.32292 -1.32292 v -1.322917 -1.322917 h -2.64583 -2.64583 v 1.322917 1.322917 h -1.32292 -1.32292 v -1.322917 -1.322917 h -5.29166 -5.291668 v 2.645834 2.645833 h -1.322916 -1.322917 v 1.322917 1.322916 h -1.322916 -1.322917 v 1.322917 1.322917 h -1.322917 -1.322916 v 1.322917 1.322916 h 2.645833 2.645833 v 1.322917 1.322917 h -1.322916 -1.322917 v 1.322914 1.32292 h 1.322917 1.322916 v 1.32292 1.32291 h 1.322917 1.322916 v 2.64584 2.64583 h 1.322917 1.322917 v 1.32292 1.32291 h 1.322914 1.32292 v 1.32292 1.32292 h -1.32292 -1.322914 v 1.32291 1.32292 h 1.322914 1.32292 v -1.32292 -1.32291 h 1.32292 1.32291 v -1.32292 -1.32292 h 6.61458 6.61459 v 1.32292 1.32292 h 1.32291 1.32292 v 1.32291 1.32292 h 3.96875 3.96875 v 1.32292 1.32291 h 9.26042 9.26041 z m -44.97916,-7.9375 v -1.32292 h -1.32292 -1.322914 v -1.32292 -1.32291 h 1.322914 1.32292 v 1.32291 1.32292 h 1.32292 1.32291 v 1.32292 1.32291 h -1.32291 -1.32292 z m 29.10416,0 v -1.32292 h 1.32292 1.32292 v 1.32292 1.32291 h -1.32292 -1.32292 z m -18.52083,-2.64584 v -1.32291 h 1.32292 1.32291 v 1.32291 1.32292 h -1.32291 -1.32292 z m -15.874998,-5.29166 v -1.32292 h -1.322916 -1.322917 v -1.32292 -1.322914 h 1.322917 1.322916 v 1.322914 1.32292 h 1.322917 1.322917 v 1.32292 1.32291 h -1.322917 -1.322917 z m 7.937498,-2.64584 v -1.322914 h 1.32292 1.32291 v 1.322914 1.32292 h -1.32291 -1.32292 z m 13.22917,-2.645831 v -1.322917 h 1.32291 1.32292 v 1.322917 1.322917 h -1.32292 -1.32291 z M 93.627319,92.803872 v -1.322917 h 1.322917 1.322916 v 1.322917 1.322917 H 94.950236 93.627319 Z M 83.043987,116.61637 v -1.32291 H 81.72107 80.398153 v 1.32291 1.32292 h 1.322917 1.322917 z m -2.645834,-5.29166 v -1.32292 H 79.075237 77.75232 v 1.32292 1.32291 h 1.322917 1.322916 z m 10.583333,0 v -1.32292 h -1.322917 -1.322916 v 1.32292 1.32291 h 1.322916 1.322917 z m -5.291666,-5.29167 v -1.32292 h -1.322917 -1.322916 v 1.32292 1.32292 h 1.322916 1.322917 z"
         id="path132"
         inkscape:connector-curvature="0" />
      <path
         style="fill:#98b6dd;stroke-width:0.26458332"
         d="m 83.043987,158.94971 v -1.32292 H 80.398153 77.75232 v -1.32291 -1.32292 h -1.322916 -1.322917 v -1.32292 -1.32291 h -1.322916 -1.322917 v -2.64584 -2.64583 h -1.322917 -1.322916 v -6.61458 -6.61459 h -1.322917 -1.322916 v -1.32292 -1.32291 h -1.322917 -1.322917 v -1.32292 -1.32292 h -1.322916 -1.322917 v -2.64583 -2.64583 h 1.322917 1.322916 v -3.96875 -3.96875 h 1.322917 1.322917 V 104.71012 94.126789 h -1.322917 -1.322917 v -2.645834 -2.645833 h 1.322917 1.322917 v -1.322917 -1.322916 h 2.645833 2.645833 v -1.322917 -1.322917 h 2.645833 2.645833 v 1.322917 1.322917 h 1.322917 1.322916 v 5.291666 5.291667 h 1.322917 1.322917 v -2.645833 -2.645834 h 1.322916 1.322917 v -1.322916 -1.322917 h 1.322916 1.322917 v -1.322917 -1.322916 h 1.322916 1.322917 v -1.322917 -1.322917 h 1.322917 1.322916 v -1.322917 -1.322917 h 10.583331 10.58333 v 1.322917 1.322917 h 1.32292 1.32292 v 1.322917 1.322917 h 1.32291 1.32292 v 1.322916 1.322917 h 2.64583 2.64584 v 1.322917 1.322916 h 1.32291 1.32292 v 1.322917 1.322917 h 1.32292 1.32291 v 1.322917 1.322916 h 1.32292 1.32292 v 2.645834 2.645834 h 2.64583 2.64583 v 1.32292 1.32291 h 2.64584 2.64583 v 1.32292 1.32292 h 2.64583 2.64584 v 1.32291 1.32292 h 1.32291 1.32292 v 5.29167 5.29166 h -1.32292 -1.32291 v 1.32292 1.32292 h -3.96875 -3.96875 v 1.32291 1.32292 h 1.32291 1.32292 v 10.58333 10.58334 h -1.32292 -1.32291 v 2.64583 2.64584 h -1.32292 -1.32292 v 1.32291 1.32292 h -1.32291 -1.32292 v 1.32292 1.32291 h -2.64583 -2.64584 v 1.32292 1.32292 h -7.9375 -7.9375 v -5.29167 -5.29167 h -1.32291 -1.32292 v -1.32291 -1.32292 h -1.32292 -1.32291 v -3.96875 -3.96875 h -1.32292 -1.32292 v 1.32292 1.32291 h -1.32291 -1.32292 v -1.32291 -1.32292 h -1.32291 -1.32292 v 9.26042 9.26041 h 1.32292 1.32291 v -2.64583 -2.64583 h 1.32292 1.32291 v 1.32291 1.32292 h 1.32292 1.32292 v -1.32292 -1.32291 h 1.32291 1.32292 v 3.96875 3.96875 h -1.32292 -1.32291 v -1.32292 -1.32292 h -1.32292 -1.32292 v 1.32292 1.32292 H 94.950236 83.043987 Z m 15.874999,-10.58333 v -9.26042 h 1.322914 1.32292 v -1.32292 -1.32292 h 6.61458 6.61458 v 1.32292 1.32292 h -1.32291 -1.32292 v 1.32292 1.32291 h 1.32292 1.32291 v -1.32291 -1.32292 h 1.32292 1.32292 v 9.26042 9.26041 h 6.61458 6.61458 v -1.32291 -1.32292 h 2.64584 2.64583 v -1.32292 -1.32291 h 1.32292 1.32291 v -2.64584 -2.64583 h 1.32292 1.32292 v -10.58334 -10.58333 h -1.32292 -1.32292 v -1.32292 -1.32291 h -9.26041 -9.26042 v -1.32292 -1.32292 h -2.64583 -2.64584 v -1.32291 -1.32292 h -1.32291 -1.32292 v 1.32292 1.32291 h -6.61458 -6.614584 v 1.32292 1.32292 h -1.322917 -1.322917 v 1.32291 1.32292 h -2.645833 -2.645833 v 2.64583 2.64584 h 1.322917 1.322916 v 6.61458 6.61459 h -6.614583 -6.614583 v -5.29167 -5.29167 h -3.968749 -3.96875 v 6.61459 6.61458 h 1.322917 1.322916 v 2.64583 2.64584 h 1.322917 1.322916 v 1.32291 1.32292 h 2.645833 2.645834 v 1.32292 1.32291 h 7.937499 7.9375 z m 23.812494,-13.22917 v -6.61459 h 1.32292 1.32292 v -1.32291 -1.32292 h 3.96875 3.96875 v 1.32292 1.32291 h 1.32291 1.32292 v 6.61459 6.61458 h -6.61458 -6.61459 z m -7.9375,10.58333 v -1.32291 h -1.32291 -1.32292 v 1.32291 1.32292 h 1.32292 1.32291 z M 83.043987,127.19971 v -1.32292 h -3.96875 -3.96875 v -1.32292 -1.32291 h -1.322916 -1.322917 v -1.32292 -1.32292 h -1.322917 -1.322916 v 2.64584 2.64583 h 1.322916 1.322917 v 1.32292 1.32291 h 5.291666 5.291667 z m 7.937499,-7.9375 v -1.32292 h -1.322917 -1.322916 v 1.32292 1.32291 h 1.322916 1.322917 z m 55.562494,0 v -1.32292 h 1.32292 1.32292 v -3.96875 -3.96875 h -1.32292 -1.32292 v 1.32292 1.32291 h -1.32291 -1.32292 v -1.32291 -1.32292 h -2.64583 -2.64584 v -1.32292 -1.32291 h -1.32291 -1.32292 v -1.32292 -1.32292 h -1.32292 -1.32291 v -1.32291 -1.32292 h -1.32292 -1.32292 v -1.32292 -1.322914 h -2.64583 -2.64583 v -2.645834 -2.645833 h -1.32292 -1.32292 v -1.322917 -1.322917 h -1.32291 -1.32292 v -1.322916 -1.322917 h -1.32292 -1.32291 v -1.322917 -1.322916 h -1.32292 -1.32292 v -1.322917 -1.322917 h -2.64583 -2.64583 v 1.322917 1.322917 h -1.32292 -1.32292 v -1.322917 -1.322917 h -5.29166 -5.291668 v 2.645834 2.645833 h -1.322916 -1.322917 v 1.322917 1.322916 h -1.322916 -1.322917 v 1.322917 1.322917 h -1.322917 -1.322916 v 1.322917 1.322916 h 2.645833 2.645833 v 1.322917 1.322917 h -1.322916 -1.322917 v 1.322914 1.32292 h 1.322917 1.322916 v 1.32292 1.32291 h 1.322917 1.322916 v 2.64584 2.64583 h 1.322917 1.322917 v 1.32292 1.32291 h 1.322914 1.32292 v 1.32292 1.32292 h -1.32292 -1.322914 v 1.32291 1.32292 h 1.322914 1.32292 v -1.32292 -1.32291 h 1.32292 1.32291 v -1.32292 -1.32292 h 6.61458 6.61459 v 1.32292 1.32292 h 1.32291 1.32292 v 1.32291 1.32292 h 3.96875 3.96875 v 1.32292 1.32291 h 9.26042 9.26041 z m -44.97916,-7.9375 v -1.32292 h -1.32292 -1.322914 v -1.32292 -1.32291 h 1.322914 1.32292 v 1.32291 1.32292 h 1.32292 1.32291 v 1.32292 1.32291 h -1.32291 -1.32292 z m 29.10416,0 v -1.32292 h 1.32292 1.32292 v 1.32292 1.32291 h -1.32292 -1.32292 z m -18.52083,-2.64584 v -1.32291 h 1.32292 1.32291 v 1.32291 1.32292 h -1.32291 -1.32292 z m -15.874998,-5.29166 v -1.32292 h -1.322916 -1.322917 v -1.32292 -1.322914 h 1.322917 1.322916 v 1.322914 1.32292 h 1.322917 1.322917 v 1.32292 1.32291 h -1.322917 -1.322917 z m 7.937498,-2.64584 v -1.322914 h 1.32292 1.32291 v 1.322914 1.32292 h -1.32291 -1.32292 z m 13.22917,-2.645831 v -1.322917 h 1.32291 1.32292 v 1.322917 1.322917 h -1.32292 -1.32291 z M 93.627319,92.803872 v -1.322917 h 1.322917 1.322916 v 1.322917 1.322917 H 94.950236 93.627319 Z M 83.043987,116.61637 v -1.32291 H 81.72107 80.398153 v 1.32291 1.32292 h 1.322917 1.322917 z m -2.645834,-5.29166 v -1.32292 H 79.075237 77.75232 v 1.32292 1.32291 h 1.322917 1.322916 z m 10.583333,0 v -1.32292 h -1.322917 -1.322916 v 1.32292 1.32291 h 1.322916 1.322917 z m -5.291666,-5.29167 v -1.32292 h -1.322917 -1.322916 v 1.32292 1.32292 h 1.322916 1.322917 z m -7.9375,-10.583334 v -1.322917 h -2.645833 -2.645833 v 1.322917 1.322916 h 2.645833 2.645833 z m 0,-6.614584 v -2.645833 h -2.645833 -2.645833 v 1.322916 1.322917 h 1.322917 1.322916 v 1.322917 1.322916 h 1.322917 1.322916 z m 26.45833,58.208338 v -2.64583 h 1.32292 1.32291 v 2.64583 2.64583 h -1.32291 -1.32292 z"
         id="path130"
         inkscape:connector-curvature="0" />
      <path
         style="fill:#8196fe;stroke-width:0.26458332"
         d="m 83.043987,158.94971 v -1.32292 H 80.398153 77.75232 v -1.32291 -1.32292 h -1.322916 -1.322917 v -1.32292 -1.32291 h -1.322916 -1.322917 v -2.64584 -2.64583 h -1.322917 -1.322916 v -6.61458 -6.61459 h -1.322917 -1.322916 v -1.32292 -1.32291 h -1.322917 -1.322917 v -1.32292 -1.32292 h -1.322916 -1.322917 v -2.64583 -2.64583 h 1.322917 1.322916 v -3.96875 -3.96875 h 1.322917 1.322917 V 104.71012 94.126789 h -1.322917 -1.322917 v -2.645834 -2.645833 h 1.322917 1.322917 v -1.322917 -1.322916 h 2.645833 2.645833 v -1.322917 -1.322917 h 2.645833 2.645833 v 1.322917 1.322917 h 1.322917 1.322916 v 5.291666 5.291667 h 1.322917 1.322917 v -2.645833 -2.645834 h 1.322916 1.322917 v -1.322916 -1.322917 h 1.322916 1.322917 v -1.322917 -1.322916 h 1.322916 1.322917 v -1.322917 -1.322917 h 1.322917 1.322916 v -1.322917 -1.322917 h 10.583331 10.58333 v 1.322917 1.322917 h 1.32292 1.32292 v 1.322917 1.322917 h 1.32291 1.32292 v 1.322916 1.322917 h 2.64583 2.64584 v 1.322917 1.322916 h 1.32291 1.32292 v 1.322917 1.322917 h 1.32292 1.32291 v 1.322917 1.322916 h 1.32292 1.32292 v 2.645834 2.645834 h 2.64583 2.64583 v 1.32292 1.32291 h 2.64584 2.64583 v 1.32292 1.32292 h 2.64583 2.64584 v 1.32291 1.32292 h 1.32291 1.32292 v 5.29167 5.29166 h -1.32292 -1.32291 v 1.32292 1.32292 h -3.96875 -3.96875 v 1.32291 1.32292 h 1.32291 1.32292 v 10.58333 10.58334 h -1.32292 -1.32291 v 2.64583 2.64584 h -1.32292 -1.32292 v 1.32291 1.32292 h -1.32291 -1.32292 v 1.32292 1.32291 h -2.64583 -2.64584 v 1.32292 1.32292 h -7.9375 -7.9375 v -5.29167 -5.29167 h -1.32291 -1.32292 v -1.32291 -1.32292 h -1.32292 -1.32291 v -3.96875 -3.96875 h -1.32292 -1.32292 v 1.32292 1.32291 h -1.32291 -1.32292 v -1.32291 -1.32292 h -1.32291 -1.32292 v 9.26042 9.26041 h 1.32292 1.32291 v -2.64583 -2.64583 h 1.32292 1.32291 v 1.32291 1.32292 h 1.32292 1.32292 v -1.32292 -1.32291 h 1.32291 1.32292 v 3.96875 3.96875 h -1.32292 -1.32291 v -1.32292 -1.32292 h -1.32292 -1.32292 v 1.32292 1.32292 H 94.950236 83.043987 Z m 15.874999,-10.58333 v -9.26042 h 1.322914 1.32292 v -1.32292 -1.32292 h 6.61458 6.61458 v 1.32292 1.32292 h -1.32291 -1.32292 v 1.32292 1.32291 h 1.32292 1.32291 v -1.32291 -1.32292 h 1.32292 1.32292 v 9.26042 9.26041 h 6.61458 6.61458 v -1.32291 -1.32292 h 2.64584 2.64583 v -1.32292 -1.32291 h 1.32292 1.32291 v -2.64584 -2.64583 h 1.32292 1.32292 v -10.58334 -10.58333 h -1.32292 -1.32292 v -1.32292 -1.32291 h -9.26041 -9.26042 v -1.32292 -1.32292 h -2.64583 -2.64584 v -1.32291 -1.32292 h -1.32291 -1.32292 v 1.32292 1.32291 h -6.61458 -6.614584 v 1.32292 1.32292 h -1.322917 -1.322917 v 1.32291 1.32292 h -2.645833 -2.645833 v 2.64583 2.64584 h 1.322917 1.322916 v 6.61458 6.61459 h -1.322916 -1.322917 v -2.64584 -2.64583 H 88.335653 85.68982 v -2.64584 -2.64583 h -1.322917 -1.322916 v 5.29167 5.29167 H 81.72107 80.398153 v -5.29167 -5.29167 h -3.968749 -3.96875 v 6.61459 6.61458 h 1.322917 1.322916 v 2.64583 2.64584 h 1.322917 1.322916 v 1.32291 1.32292 h 2.645833 2.645834 v 1.32292 1.32291 h 7.937499 7.9375 z m 23.812494,-13.22917 v -6.61459 h 1.32292 1.32292 v -1.32291 -1.32292 h 3.96875 3.96875 v 1.32292 1.32291 h 1.32291 1.32292 v 6.61459 6.61458 h -1.32292 -1.32291 v -1.32291 -1.32292 h -1.32292 -1.32292 v -2.64584 -2.64583 h -1.32291 -1.32292 v -2.64583 -2.64584 h -1.32292 -1.32291 v 6.61459 6.61458 h -1.32292 -1.32292 z m -7.9375,10.58333 v -1.32291 h -1.32291 -1.32292 v 1.32291 1.32292 h 1.32292 1.32291 z M 83.043987,127.19971 v -1.32292 h -3.96875 -3.96875 v -1.32292 -1.32291 h -1.322916 -1.322917 v -1.32292 -1.32292 h -1.322917 -1.322916 v 2.64584 2.64583 h 1.322916 1.322917 v 1.32292 1.32291 h 5.291666 5.291667 z m 7.937499,-7.9375 v -1.32292 h -1.322917 -1.322916 v 1.32292 1.32291 h 1.322916 1.322917 z m 55.562494,0 v -1.32292 h 1.32292 1.32292 v -3.96875 -3.96875 h -1.32292 -1.32292 v 1.32292 1.32291 h -1.32291 -1.32292 v -1.32291 -1.32292 h -2.64583 -2.64584 v -1.32292 -1.32291 h -1.32291 -1.32292 v -1.32292 -1.32292 h -1.32292 -1.32291 v -1.32291 -1.32292 h -1.32292 -1.32292 v -1.32292 -1.322914 h -2.64583 -2.64583 v -2.645834 -2.645833 h -1.32292 -1.32292 v -1.322917 -1.322917 h -1.32291 -1.32292 v -1.322916 -1.322917 h -1.32292 -1.32291 v -1.322917 -1.322916 h -1.32292 -1.32292 v -1.322917 -1.322917 h -2.64583 -2.64583 v 1.322917 1.322917 h -1.32292 -1.32292 v -1.322917 -1.322917 h -5.29166 -5.291668 v 2.645834 2.645833 h -1.322916 -1.322917 v 1.322917 1.322916 h -1.322916 -1.322917 v 1.322917 1.322917 h -1.322917 -1.322916 v 1.322917 1.322916 h 2.645833 2.645833 v 1.322917 1.322917 h -1.322916 -1.322917 v 1.322914 1.32292 h 1.322917 1.322916 v 1.32292 1.32291 h 1.322917 1.322916 v 2.64584 2.64583 h 1.322917 1.322917 v 1.32292 1.32291 h 1.322914 1.32292 v 1.32292 1.32292 h -1.32292 -1.322914 v 1.32291 1.32292 h 1.322914 1.32292 v -1.32292 -1.32291 h 1.32292 1.32291 v -1.32292 -1.32292 h 6.61458 6.61459 v 1.32292 1.32292 h 1.32291 1.32292 v 1.32291 1.32292 h 3.96875 3.96875 v 1.32292 1.32291 h 9.26042 9.26041 z m -44.97916,-7.9375 v -1.32292 h -1.32292 -1.322914 v -1.32292 -1.32291 h 1.322914 1.32292 v 1.32291 1.32292 h 1.32292 1.32291 v 1.32292 1.32291 h -1.32291 -1.32292 z m 29.10416,0 v -1.32292 h 1.32292 1.32292 v 1.32292 1.32291 h -1.32292 -1.32292 z m -18.52083,-2.64584 v -1.32291 h 1.32292 1.32291 v 1.32291 1.32292 h -1.32291 -1.32292 z m -15.874998,-5.29166 v -1.32292 h -1.322916 -1.322917 v -1.32292 -1.322914 h 1.322917 1.322916 v 1.322914 1.32292 h 1.322917 1.322917 v 1.32292 1.32291 h -1.322917 -1.322917 z m 7.937498,-2.64584 v -1.322914 h 1.32292 1.32291 v 1.322914 1.32292 h -1.32291 -1.32292 z m 13.22917,-2.645831 v -1.322917 h 1.32291 1.32292 v 1.322917 1.322917 h -1.32292 -1.32291 z M 93.627319,92.803872 v -1.322917 h 1.322917 1.322916 v 1.322917 1.322917 H 94.950236 93.627319 Z M 83.043987,116.61637 v -1.32291 H 81.72107 80.398153 v 1.32291 1.32292 h 1.322917 1.322917 z m -2.645834,-5.29166 v -1.32292 H 79.075237 77.75232 v 1.32292 1.32291 h 1.322917 1.322916 z m 10.583333,0 v -1.32292 h -1.322917 -1.322916 v 1.32292 1.32291 h 1.322916 1.322917 z m -5.291666,-5.29167 v -1.32292 h -1.322917 -1.322916 v 1.32292 1.32292 h 1.322916 1.322917 z m -7.9375,-10.583334 v -1.322917 h -2.645833 -2.645833 v 1.322917 1.322916 h 2.645833 2.645833 z m 0,-6.614584 v -2.645833 h -2.645833 -2.645833 v 1.322916 1.322917 h 1.322917 1.322916 v 1.322917 1.322916 h 1.322917 1.322916 z m 26.45833,58.208338 v -2.64583 h 1.32292 1.32291 v 2.64583 2.64583 h -1.32291 -1.32292 z"
         id="path128"
         inkscape:connector-curvature="0" />
      <path
         style="fill:#feaa44;stroke-width:0.26458332"
         d="m 83.043987,158.94971 v -1.32292 H 80.398153 77.75232 v -1.32291 -1.32292 h -1.322916 -1.322917 v -1.32292 -1.32291 h -1.322916 -1.322917 v -2.64584 -2.64583 h -1.322917 -1.322916 v -6.61458 -6.61459 h -1.322917 -1.322916 v -1.32292 -1.32291 h -1.322917 -1.322917 v -1.32292 -1.32292 h -1.322916 -1.322917 v -2.64583 -2.64583 h 1.322917 1.322916 v -3.96875 -3.96875 h 1.322917 1.322917 V 104.71012 94.126789 h -1.322917 -1.322917 v -2.645834 -2.645833 h 1.322917 1.322917 v -1.322917 -1.322916 h 2.645833 2.645833 v -1.322917 -1.322917 h 2.645833 2.645833 v 1.322917 1.322917 h 1.322917 1.322916 v 5.291666 5.291667 h 1.322917 1.322917 v -2.645833 -2.645834 h 1.322916 1.322917 v -1.322916 -1.322917 h 1.322916 1.322917 v -1.322917 -1.322916 h 1.322916 1.322917 v -1.322917 -1.322917 h 1.322917 1.322916 v -1.322917 -1.322917 h 10.583331 10.58333 v 1.322917 1.322917 h 1.32292 1.32292 v 1.322917 1.322917 h 1.32291 1.32292 v 1.322916 1.322917 h 2.64583 2.64584 v 1.322917 1.322916 h 1.32291 1.32292 v 1.322917 1.322917 h 1.32292 1.32291 v 1.322917 1.322916 h 1.32292 1.32292 v 2.645834 2.645834 h 2.64583 2.64583 v 1.32292 1.32291 h 2.64584 2.64583 v 1.32292 1.32292 h 2.64583 2.64584 v 1.32291 1.32292 h 1.32291 1.32292 v 5.29167 5.29166 h -1.32292 -1.32291 v 1.32292 1.32292 h -3.96875 -3.96875 v 1.32291 1.32292 h 1.32291 1.32292 v 10.58333 10.58334 h -1.32292 -1.32291 v 2.64583 2.64584 h -1.32292 -1.32292 v 1.32291 1.32292 h -1.32291 -1.32292 v 1.32292 1.32291 h -2.64583 -2.64584 v 1.32292 1.32292 h -7.9375 -7.9375 v -5.29167 -5.29167 h -1.32291 -1.32292 v -1.32291 -1.32292 h -1.32292 -1.32291 v -3.96875 -3.96875 h -1.32292 -1.32292 v 1.32292 1.32291 h -1.32291 -1.32292 v -1.32291 -1.32292 h -1.32291 -1.32292 v 9.26042 9.26041 h 1.32292 1.32291 v -2.64583 -2.64583 h 1.32292 1.32291 v 1.32291 1.32292 h 1.32292 1.32292 v -1.32292 -1.32291 h 1.32291 1.32292 v 3.96875 3.96875 h -1.32292 -1.32291 v -1.32292 -1.32292 h -1.32292 -1.32292 v 1.32292 1.32292 H 94.950236 83.043987 Z m 15.874999,-10.58333 v -9.26042 h 1.322914 1.32292 v -1.32292 -1.32292 h 6.61458 6.61458 v 1.32292 1.32292 h -1.32291 -1.32292 v 1.32292 1.32291 h 1.32292 1.32291 v -1.32291 -1.32292 h 1.32292 1.32292 v 9.26042 9.26041 h 6.61458 6.61458 v -1.32291 -1.32292 h 2.64584 2.64583 v -1.32292 -1.32291 h 1.32292 1.32291 v -2.64584 -2.64583 h 1.32292 1.32292 v -10.58334 -10.58333 h -1.32292 -1.32292 v -1.32292 -1.32291 h -9.26041 -9.26042 v -1.32292 -1.32292 h -2.64583 -2.64584 v -1.32291 -1.32292 h -1.32291 -1.32292 v 1.32292 1.32291 h -6.61458 -6.614584 v 1.32292 1.32292 h -1.322917 -1.322917 v 1.32291 1.32292 h -2.645833 -2.645833 v 2.64583 2.64584 h -3.96875 -3.968749 v 6.61458 6.61459 H 81.72107 80.398153 v -5.29167 -5.29167 h -3.968749 -3.96875 v 6.61459 6.61458 h 1.322917 1.322916 v 2.64583 2.64584 h 1.322917 1.322916 v 1.32291 1.32292 h 2.645833 2.645834 v 1.32292 1.32291 h 7.937499 7.9375 z m -7.9375,-10.58334 v -6.61458 h 1.322917 1.322916 v 6.61458 6.61459 h -1.322916 -1.322917 z m 31.749994,-2.64583 v -6.61459 h 1.32292 1.32292 v -1.32291 -1.32292 h 3.96875 3.96875 v 1.32292 1.32291 h 1.32291 1.32292 v 6.61459 6.61458 h -1.32292 -1.32291 v -6.61458 -6.61459 h -3.96875 -3.96875 v 6.61459 6.61458 h -1.32292 -1.32292 z m -7.9375,10.58333 v -1.32291 h -1.32291 -1.32292 v 1.32291 1.32292 h 1.32292 1.32291 z M 83.043987,127.19971 v -1.32292 h -3.96875 -3.96875 v -1.32292 -1.32291 h -1.322916 -1.322917 v -1.32292 -1.32292 h -1.322917 -1.322916 v 2.64584 2.64583 h 1.322916 1.322917 v 1.32292 1.32291 h 5.291666 5.291667 z m 7.937499,-7.9375 v -1.32292 h -1.322917 -1.322916 v 1.32292 1.32291 h 1.322916 1.322917 z m 55.562494,0 v -1.32292 h 1.32292 1.32292 v -3.96875 -3.96875 h -1.32292 -1.32292 v 1.32292 1.32291 h -1.32291 -1.32292 v -1.32291 -1.32292 h -2.64583 -2.64584 v -1.32292 -1.32291 h -1.32291 -1.32292 v -1.32292 -1.32292 h -1.32292 -1.32291 v -1.32291 -1.32292 h -1.32292 -1.32292 v -1.32292 -1.322914 h -2.64583 -2.64583 v -2.645834 -2.645833 h -1.32292 -1.32292 v -1.322917 -1.322917 h -1.32291 -1.32292 v -1.322916 -1.322917 h -1.32292 -1.32291 v -1.322917 -1.322916 h -1.32292 -1.32292 v -1.322917 -1.322917 h -2.64583 -2.64583 v 1.322917 1.322917 h -1.32292 -1.32292 v -1.322917 -1.322917 h -5.29166 -5.291668 v 2.645834 2.645833 h -1.322916 -1.322917 v 1.322917 1.322916 h -1.322916 -1.322917 v 1.322917 1.322917 h -1.322917 -1.322916 v 1.322917 1.322916 h 2.645833 2.645833 v 1.322917 1.322917 h -1.322916 -1.322917 v 1.322914 1.32292 h 1.322917 1.322916 v 1.32292 1.32291 h 1.322917 1.322916 v 2.64584 2.64583 h 1.322917 1.322917 v 1.32292 1.32291 h 1.322914 1.32292 v 1.32292 1.32292 h -1.32292 -1.322914 v 1.32291 1.32292 h 1.322914 1.32292 v -1.32292 -1.32291 h 1.32292 1.32291 v -1.32292 -1.32292 h 6.61458 6.61459 v 1.32292 1.32292 h 1.32291 1.32292 v 1.32291 1.32292 h 3.96875 3.96875 v 1.32292 1.32291 h 9.26042 9.26041 z m -44.97916,-7.9375 v -1.32292 h -1.32292 -1.322914 v -1.32292 -1.32291 h 1.322914 1.32292 v 1.32291 1.32292 h 1.32292 1.32291 v 1.32292 1.32291 h -1.32291 -1.32292 z m 29.10416,0 v -1.32292 h 1.32292 1.32292 v 1.32292 1.32291 h -1.32292 -1.32292 z m -18.52083,-2.64584 v -1.32291 h 1.32292 1.32291 v 1.32291 1.32292 h -1.32291 -1.32292 z m -15.874998,-5.29166 v -1.32292 h -1.322916 -1.322917 v -1.32292 -1.322914 h 1.322917 1.322916 v 1.322914 1.32292 h 1.322917 1.322917 v 1.32292 1.32291 h -1.322917 -1.322917 z m 7.937498,-2.64584 v -1.322914 h 1.32292 1.32291 v 1.322914 1.32292 h -1.32291 -1.32292 z m 13.22917,-2.645831 v -1.322917 h 1.32291 1.32292 v 1.322917 1.322917 h -1.32292 -1.32291 z M 93.627319,92.803872 v -1.322917 h 1.322917 1.322916 v 1.322917 1.322917 H 94.950236 93.627319 Z M 83.043987,116.61637 v -1.32291 H 81.72107 80.398153 v 1.32291 1.32292 h 1.322917 1.322917 z m -2.645834,-5.29166 v -1.32292 H 79.075237 77.75232 v 1.32292 1.32291 h 1.322917 1.322916 z m 10.583333,0 v -1.32292 h -1.322917 -1.322916 v 1.32292 1.32291 h 1.322916 1.322917 z m -5.291666,-5.29167 v -1.32292 h -1.322917 -1.322916 v 1.32292 1.32292 h 1.322916 1.322917 z m -7.9375,-10.583334 v -1.322917 h -2.645833 -2.645833 v 1.322917 1.322916 h 2.645833 2.645833 z m 0,-6.614584 v -2.645833 h -2.645833 -2.645833 v 1.322916 1.322917 h 1.322917 1.322916 v 1.322917 1.322916 h 1.322917 1.322916 z m 26.45833,58.208338 v -2.64583 h 1.32292 1.32291 v 2.64583 2.64583 h -1.32291 -1.32292 z"
         id="path126"
         inkscape:connector-curvature="0" />
      <path
         style="fill:#f15b86;stroke-width:0.26458332"
         d="m 83.043987,158.94971 v -1.32292 H 80.398153 77.75232 v -1.32291 -1.32292 h -1.322916 -1.322917 v -1.32292 -1.32291 h -1.322916 -1.322917 v -2.64584 -2.64583 h -1.322917 -1.322916 v -6.61458 -6.61459 h -1.322917 -1.322916 v -1.32292 -1.32291 h -1.322917 -1.322917 v -1.32292 -1.32292 h -1.322916 -1.322917 v -2.64583 -2.64583 h 1.322917 1.322916 v -3.96875 -3.96875 h 1.322917 1.322917 V 104.71012 94.126789 h -1.322917 -1.322917 v -2.645834 -2.645833 h 1.322917 1.322917 v -1.322917 -1.322916 h 2.645833 2.645833 v -1.322917 -1.322917 h 2.645833 2.645833 v 1.322917 1.322917 h 1.322917 1.322916 v 5.291666 5.291667 h 1.322917 1.322917 v -2.645833 -2.645834 h 1.322916 1.322917 v -1.322916 -1.322917 h 1.322916 1.322917 v -1.322917 -1.322916 h 1.322916 1.322917 v -1.322917 -1.322917 h 1.322917 1.322916 v -1.322917 -1.322917 h 10.583331 10.58333 v 1.322917 1.322917 h 1.32292 1.32292 v 1.322917 1.322917 h 1.32291 1.32292 v 1.322916 1.322917 h 2.64583 2.64584 v 1.322917 1.322916 h 1.32291 1.32292 v 1.322917 1.322917 h 1.32292 1.32291 v 1.322917 1.322916 h 1.32292 1.32292 v 2.645834 2.645834 h 2.64583 2.64583 v 1.32292 1.32291 h 2.64584 2.64583 v 1.32292 1.32292 h 2.64583 2.64584 v 1.32291 1.32292 h 1.32291 1.32292 v 5.29167 5.29166 h -1.32292 -1.32291 v 1.32292 1.32292 h -3.96875 -3.96875 v 1.32291 1.32292 h 1.32291 1.32292 v 10.58333 10.58334 h -1.32292 -1.32291 v 2.64583 2.64584 h -1.32292 -1.32292 v 1.32291 1.32292 h -1.32291 -1.32292 v 1.32292 1.32291 h -2.64583 -2.64584 v 1.32292 1.32292 h -7.9375 -7.9375 v -5.29167 -5.29167 h -1.32291 -1.32292 v -1.32291 -1.32292 h -1.32292 -1.32291 v -3.96875 -3.96875 h -1.32292 -1.32292 v 1.32292 1.32291 h -1.32291 -1.32292 v -1.32291 -1.32292 h -1.32291 -1.32292 v 9.26042 9.26041 h 1.32292 1.32291 v -2.64583 -2.64583 h 1.32292 1.32291 v 1.32291 1.32292 h 1.32292 1.32292 v -1.32292 -1.32291 h 1.32291 1.32292 v 3.96875 3.96875 h -1.32292 -1.32291 v -1.32292 -1.32292 h -1.32292 -1.32292 v 1.32292 1.32292 H 94.950236 83.043987 Z m 15.874999,-10.58333 v -9.26042 h 1.322914 1.32292 v -1.32292 -1.32292 h 6.61458 6.61458 v 1.32292 1.32292 h -1.32291 -1.32292 v 1.32292 1.32291 h 1.32292 1.32291 v -1.32291 -1.32292 h 1.32292 1.32292 v 9.26042 9.26041 h 6.61458 6.61458 v -1.32291 -1.32292 h 2.64584 2.64583 v -1.32292 -1.32291 h 1.32292 1.32291 v -2.64584 -2.64583 h 1.32292 1.32292 v -10.58334 -10.58333 h -1.32292 -1.32292 v -1.32292 -1.32291 h -9.26041 -9.26042 v -1.32292 -1.32292 h 14.55208 14.55209 v -5.29166 -5.29167 h -2.64584 -2.64583 v -1.32292 -1.32291 h -2.64583 -2.64584 v -1.32292 -1.32292 h -2.64583 -2.64583 v -1.32291 -1.32292 h -1.32292 -1.32292 v -2.645834 -2.645834 h -1.32291 -1.32292 v -1.322916 -1.322917 h -1.32292 -1.32291 v -1.322917 -1.322917 h -2.64584 -2.64583 v -1.322916 -1.322917 h -1.32292 -1.32291 v -1.322917 -1.322916 h -1.32292 -1.32292 V 84.866372 83.543455 H 104.21065 93.627319 v 1.322917 1.322917 h -1.322916 -1.322917 v 1.322916 1.322917 h -1.322917 -1.322916 v 1.322917 1.322916 H 87.012736 85.68982 v 2.645834 2.645833 h -1.322917 -1.322916 v 1.322917 1.322917 H 81.72107 80.398153 v 1.322914 1.32292 H 79.075237 77.75232 v 1.32292 1.32291 h -1.322916 -1.322917 v 1.32292 1.32292 h -1.322916 -1.322917 v 2.64583 2.64583 h -1.322917 -1.322916 v 1.32292 1.32292 h -1.322917 -1.322916 v 3.96875 3.96875 h -1.322917 -1.322917 v 2.64583 2.64583 h 1.322917 1.322917 v 1.32292 1.32292 h 6.614583 6.614582 v -1.32292 -1.32292 h 2.645834 2.645833 v -1.32291 -1.32292 h 2.645833 2.645833 v 2.64583 2.64584 h -3.96875 -3.968749 v 6.61458 6.61459 H 81.72107 80.398153 v -5.29167 -5.29167 h -3.968749 -3.96875 v 6.61459 6.61458 h 1.322917 1.322916 v 2.64583 2.64584 h 1.322917 1.322916 v 1.32291 1.32292 h 2.645833 2.645834 v 1.32292 1.32291 h 7.937499 7.9375 z m -7.9375,-10.58334 v -6.61458 h 1.322917 1.322916 v 6.61458 6.61459 h -1.322916 -1.322917 z m 31.749994,-2.64583 v -6.61459 h 1.32292 1.32292 v -1.32291 -1.32292 h 3.96875 3.96875 v 1.32292 1.32291 h 1.32291 1.32292 v 6.61459 6.61458 h -1.32292 -1.32291 v -6.61458 -6.61459 h -3.96875 -3.96875 v 6.61459 6.61458 h -1.32292 -1.32292 z M 75.106487,124.55387 v -1.32291 h -1.322916 -1.322917 v -1.32292 -1.32292 h 1.322917 1.322916 v 1.32292 1.32292 h 5.291666 5.291667 v 1.32291 1.32292 h -5.291667 -5.291666 z m 15.874999,0 v -1.32291 h 2.645833 2.645833 v -1.32292 -1.32292 h 1.322917 1.322917 v -1.32291 -1.32292 h 6.614584 6.61458 v -1.32292 -1.32291 h 2.64583 2.64584 v 1.32291 1.32292 h 1.32291 1.32292 v 1.32292 1.32291 h -2.64583 -2.64584 v -1.32291 -1.32292 h -1.32291 -1.32292 v 1.32292 1.32291 h -6.61458 -6.614584 v 1.32292 1.32292 h -1.322917 -1.322917 v 1.32291 1.32292 h -2.645833 -2.645833 z m 23.812494,21.16667 v -1.32291 h -1.32291 -1.32292 v 1.32291 1.32292 h 1.32292 1.32291 z M 77.75232,95.449706 v -1.322917 h -2.645833 -2.645833 v 1.322917 1.322916 h 2.645833 2.645833 z m 0,-6.614584 v -2.645833 h -2.645833 -2.645833 v 1.322916 1.322917 h 1.322917 1.322916 v 1.322917 1.322916 h 1.322917 1.322916 z m 26.45833,58.208338 v -2.64583 h 1.32292 1.32291 v 2.64583 2.64583 h -1.32291 -1.32292 z"
         id="path124"
         inkscape:connector-curvature="0" />
      <path
         style="fill:#f15454;stroke-width:0.26458332"
         d="m 83.043987,158.94971 v -1.32292 H 80.398153 77.75232 v -1.32291 -1.32292 h -1.322916 -1.322917 v -1.32292 -1.32291 h -1.322916 -1.322917 v -2.64584 -2.64583 h -1.322917 -1.322916 v -6.61458 -6.61459 h -1.322917 -1.322916 v -1.32292 -1.32291 h -1.322917 -1.322917 v -1.32292 -1.32292 h -1.322916 -1.322917 v -2.64583 -2.64583 h 1.322917 1.322916 v -3.96875 -3.96875 h 1.322917 1.322917 V 104.71012 94.126789 h -1.322917 -1.322917 v -2.645834 -2.645833 h 1.322917 1.322917 v -1.322917 -1.322916 h 2.645833 2.645833 v -1.322917 -1.322917 h 2.645833 2.645833 v 1.322917 1.322917 h 1.322917 1.322916 v 5.291666 5.291667 h 1.322917 1.322917 v -2.645833 -2.645834 h 1.322916 1.322917 v -1.322916 -1.322917 h 1.322916 1.322917 v -1.322917 -1.322916 h 1.322916 1.322917 v -1.322917 -1.322917 h 1.322917 1.322916 v -1.322917 -1.322917 h 10.583331 10.58333 v 1.322917 1.322917 h 1.32292 1.32292 v 1.322917 1.322917 h 1.32291 1.32292 v 1.322916 1.322917 h 2.64583 2.64584 v 1.322917 1.322916 h 1.32291 1.32292 v 1.322917 1.322917 h 1.32292 1.32291 v 1.322917 1.322916 h 1.32292 1.32292 v 2.645834 2.645834 h 2.64583 2.64583 v 1.32292 1.32291 h 2.64584 2.64583 v 1.32292 1.32292 h 2.64583 2.64584 v 1.32291 1.32292 h 1.32291 1.32292 v 5.29167 5.29166 h -1.32292 -1.32291 v 1.32292 1.32292 h -3.96875 -3.96875 v 1.32291 1.32292 h 1.32291 1.32292 v 10.58333 10.58334 h -1.32292 -1.32291 v 2.64583 2.64584 h -1.32292 -1.32292 v 1.32291 1.32292 h -1.32291 -1.32292 v 1.32292 1.32291 h -2.64583 -2.64584 v 1.32292 1.32292 h -7.9375 -7.9375 v -5.29167 -5.29167 h -1.32291 -1.32292 v -1.32291 -1.32292 h 1.32292 1.32291 v -3.96875 -3.96875 h -6.61458 -6.61458 v 10.58333 10.58334 h -9.260417 -9.260416 z m 15.874999,-10.58333 v -9.26042 h 1.322914 1.32292 v -1.32292 -1.32292 h 6.61458 6.61458 v 1.32292 1.32292 h 1.32292 1.32292 v 9.26042 9.26041 h 6.61458 6.61458 v -1.32291 -1.32292 h 2.64584 2.64583 v -1.32292 -1.32291 h 1.32292 1.32291 v -2.64584 -2.64583 h 1.32292 1.32292 v -10.58334 -10.58333 h -1.32292 -1.32292 v -1.32292 -1.32291 h -9.26041 -9.26042 v -1.32292 -1.32292 h 14.55208 14.55209 v -5.29166 -5.29167 h -2.64584 -2.64583 v -1.32292 -1.32291 h -2.64583 -2.64584 v -1.32292 -1.32292 h -2.64583 -2.64583 v -1.32291 -1.32292 h -1.32292 -1.32292 v -2.645834 -2.645834 h -1.32291 -1.32292 v -1.322916 -1.322917 h -1.32292 -1.32291 v -1.322917 -1.322917 h -2.64584 -2.64583 v -1.322916 -1.322917 h -1.32292 -1.32291 v -1.322917 -1.322916 h -1.32292 -1.32292 V 84.866372 83.543455 H 104.21065 93.627319 v 1.322917 1.322917 h -1.322916 -1.322917 v 1.322916 1.322917 h -1.322917 -1.322916 v 1.322917 1.322916 H 87.012736 85.68982 v 2.645834 2.645833 h -1.322917 -1.322916 v 1.322917 1.322917 H 81.72107 80.398153 v 1.322914 1.32292 H 79.075237 77.75232 v 1.32292 1.32291 h -1.322916 -1.322917 v 1.32292 1.32292 h -1.322916 -1.322917 v 2.64583 2.64583 h -1.322917 -1.322916 v 1.32292 1.32292 h -1.322917 -1.322916 v 3.96875 3.96875 h -1.322917 -1.322917 v 2.64583 2.64583 h 1.322917 1.322917 v 1.32292 1.32292 h 6.614583 6.614582 v -1.32292 -1.32292 h 2.645834 2.645833 v -1.32291 -1.32292 h 2.645833 2.645833 v 2.64583 2.64584 h -3.96875 -3.968749 v 6.61458 6.61459 H 81.72107 80.398153 v -5.29167 -5.29167 h -3.968749 -3.96875 v 6.61459 6.61458 h 1.322917 1.322916 v 2.64583 2.64584 h 1.322917 1.322916 v 1.32291 1.32292 h 2.645833 2.645834 v 1.32292 1.32291 h 7.937499 7.9375 z m -7.9375,-10.58334 v -6.61458 h 1.322917 1.322916 v 6.61458 6.61459 h -1.322916 -1.322917 z m 31.749994,-2.64583 v -6.61459 h 1.32292 1.32292 v -1.32291 -1.32292 h 3.96875 3.96875 v 1.32292 1.32291 h 1.32291 1.32292 v 6.61459 6.61458 h -1.32292 -1.32291 v -6.61458 -6.61459 h -3.96875 -3.96875 v 6.61459 6.61458 h -1.32292 -1.32292 z M 75.106487,124.55387 v -1.32291 h -1.322916 -1.322917 v -1.32292 -1.32292 h 1.322917 1.322916 v 1.32292 1.32292 h 5.291666 5.291667 v 1.32291 1.32292 h -5.291667 -5.291666 z m 15.874999,0 v -1.32291 h 2.645833 2.645833 v -1.32292 -1.32292 h 1.322917 1.322917 v -1.32291 -1.32292 h 6.614584 6.61458 v -1.32292 -1.32291 h 2.64583 2.64584 v 1.32291 1.32292 h 1.32291 1.32292 v 1.32292 1.32291 h -2.64583 -2.64584 v -1.32291 -1.32292 h -1.32291 -1.32292 v 1.32292 1.32291 h -6.61458 -6.614584 v 1.32292 1.32292 h -1.322917 -1.322917 v 1.32291 1.32292 H 93.627319 90.981486 Z M 77.75232,95.449706 v -1.322917 h -2.645833 -2.645833 v 1.322917 1.322916 h 2.645833 2.645833 z m 0,-6.614584 v -2.645833 h -2.645833 -2.645833 v 1.322916 1.322917 h 1.322917 1.322916 v 1.322917 1.322916 h 1.322917 1.322916 z"
         id="path122"
         inkscape:connector-curvature="0" />
      <path
         style="fill:#c6457f;stroke-width:0.26458332"
         d="m 83.043987,158.94971 v -1.32292 H 80.398153 77.75232 v -1.32291 -1.32292 h -1.322916 -1.322917 v -1.32292 -1.32291 h -1.322916 -1.322917 v -2.64584 -2.64583 h -1.322917 -1.322916 v -6.61458 -6.61459 h -1.322917 -1.322916 v -1.32292 -1.32291 h -1.322917 -1.322917 v -1.32292 -1.32292 h -1.322916 -1.322917 v -2.64583 -2.64583 h 1.322917 1.322916 v -3.96875 -3.96875 h 1.322917 1.322917 V 104.71012 94.126789 h -1.322917 -1.322917 v -2.645834 -2.645833 h 1.322917 1.322917 v -1.322917 -1.322916 h 2.645833 2.645833 v -1.322917 -1.322917 h 2.645833 2.645833 v 1.322917 1.322917 h 1.322917 1.322916 v 5.291666 5.291667 h 1.322917 1.322917 v -2.645833 -2.645834 h 1.322916 1.322917 v -1.322916 -1.322917 h 1.322916 1.322917 v -1.322917 -1.322916 h 1.322916 1.322917 v -1.322917 -1.322917 h 1.322917 1.322916 v -1.322917 -1.322917 h 10.583331 10.58333 v 1.322917 1.322917 h 1.32292 1.32292 v 1.322917 1.322917 h 1.32291 1.32292 v 1.322916 1.322917 h 2.64583 2.64584 v 1.322917 1.322916 h 1.32291 1.32292 v 1.322917 1.322917 h 1.32292 1.32291 v 1.322917 1.322916 h 1.32292 1.32292 v 2.645834 2.645834 h 2.64583 2.64583 v 1.32292 1.32291 h 2.64584 2.64583 v 1.32292 1.32292 h 2.64583 2.64584 v 1.32291 1.32292 h 1.32291 1.32292 v 5.29167 5.29166 h -1.32292 -1.32291 v 1.32292 1.32292 h -3.96875 -3.96875 v 1.32291 1.32292 h 1.32291 1.32292 v 10.58333 10.58334 h -1.32292 -1.32291 v 2.64583 2.64584 h -1.32292 -1.32292 v 1.32291 1.32292 h -1.32291 -1.32292 v 1.32292 1.32291 h -2.64583 -2.64584 v 1.32292 1.32292 h -7.9375 -7.9375 v -5.29167 -5.29167 h -1.32291 -1.32292 v -1.32291 -1.32292 h 1.32292 1.32291 v -3.96875 -3.96875 h -6.61458 -6.61458 v 10.58333 10.58334 h -9.260417 -9.260416 z m 15.874999,-10.58333 v -9.26042 h 1.322914 1.32292 v -1.32292 -1.32292 h 6.61458 6.61458 v 1.32292 1.32292 h 1.32292 1.32292 v 9.26042 9.26041 h 6.61458 6.61458 v -1.32291 -1.32292 h 2.64584 2.64583 v -1.32292 -1.32291 h 1.32292 1.32291 v -2.64584 -2.64583 h 1.32292 1.32292 v -10.58334 -10.58333 h -1.32292 -1.32292 v -1.32292 -1.32291 h -9.26041 -9.26042 v -1.32292 -1.32292 h 14.55208 14.55209 v -5.29166 -5.29167 h -2.64584 -2.64583 v -1.32292 -1.32291 h -2.64583 -2.64584 v -1.32292 -1.32292 h -2.64583 -2.64583 v -1.32291 -1.32292 h -1.32292 -1.32292 v -2.645834 -2.645834 h -1.32291 -1.32292 v -1.322916 -1.322917 h -1.32292 -1.32291 v -1.322917 -1.322917 h -2.64584 -2.64583 v -1.322916 -1.322917 h -1.32292 -1.32291 v -1.322917 -1.322916 h -1.32292 -1.32292 V 84.866372 83.543455 H 104.21065 93.627319 v 1.322917 1.322917 h -1.322916 -1.322917 v 1.322916 1.322917 h -1.322917 -1.322916 v 1.322917 1.322916 H 87.012736 85.68982 v 2.645834 2.645833 h -1.322917 -1.322916 v 1.322917 1.322917 H 81.72107 80.398153 v 1.322914 1.32292 H 79.075237 77.75232 v -3.968751 -3.96875 h -2.645833 -2.645833 v 2.645833 2.645834 h 1.322917 1.322916 v 1.322914 1.32292 h -1.322916 -1.322917 v 1.32292 1.32291 h -1.322917 -1.322916 v 2.64584 2.64583 h 1.322916 1.322917 v 1.32292 1.32291 h -1.322917 -1.322916 v 1.32292 1.32292 h -1.322917 -1.322916 v 3.96875 3.96875 h -1.322917 -1.322917 v 2.64583 2.64583 h 1.322917 1.322917 v 1.32292 1.32292 h 6.614583 6.614582 v -1.32292 -1.32292 h 2.645834 2.645833 v -1.32291 -1.32292 h 2.645833 2.645833 v 2.64583 2.64584 h -3.96875 -3.968749 v 6.61458 6.61459 H 81.72107 80.398153 v -5.29167 -5.29167 h -3.968749 -3.96875 v 6.61459 6.61458 h 1.322917 1.322916 v 2.64583 2.64584 h 1.322917 1.322916 v 1.32291 1.32292 h 2.645833 2.645834 v 1.32292 1.32291 h 7.937499 7.9375 z m -7.9375,-10.58334 v -6.61458 h 1.322917 1.322916 v 6.61458 6.61459 h -1.322916 -1.322917 z m 31.749994,-2.64583 v -6.61459 h 1.32292 1.32292 v -1.32291 -1.32292 h 3.96875 3.96875 v 1.32292 1.32291 h 1.32291 1.32292 v 6.61459 6.61458 h -1.32292 -1.32291 v -6.61458 -6.61459 h -3.96875 -3.96875 v 6.61459 6.61458 h -1.32292 -1.32292 z M 75.106487,124.55387 v -1.32291 h -1.322916 -1.322917 v -1.32292 -1.32292 h 1.322917 1.322916 v 1.32292 1.32292 h 5.291666 5.291667 v 1.32291 1.32292 h -5.291667 -5.291666 z m 15.874999,0 v -1.32291 h 2.645833 2.645833 v -1.32292 -1.32292 h 1.322917 1.322917 v -1.32291 -1.32292 h 6.614584 6.61458 v -1.32292 -1.32291 h 2.64583 2.64584 v 1.32291 1.32292 h 1.32291 1.32292 v 1.32292 1.32291 h -2.64583 -2.64584 v -1.32291 -1.32292 h -1.32291 -1.32292 v 1.32292 1.32291 h -6.61458 -6.614584 v 1.32292 1.32292 h -1.322917 -1.322917 v 1.32291 1.32292 H 93.627319 90.981486 Z M 72.460654,106.03304 v -1.32292 h 1.322917 1.322916 v -1.32291 -1.32292 h 1.322917 1.322916 v 1.32292 1.32291 h -1.322916 -1.322917 v 1.32292 1.32292 H 73.783571 72.460654 Z M 77.75232,88.835122 v -2.645833 h -2.645833 -2.645833 v 1.322916 1.322917 h -2.645833 -2.645833 v 1.322917 1.322916 h 5.291666 5.291666 z"
         id="path120"
         inkscape:connector-curvature="0" />
      <path
         style="fill:#4f5eaa;stroke-width:0.26458332"
         d="m 83.043987,158.94971 v -1.32292 H 80.398153 77.75232 v -1.32291 -1.32292 h -1.322916 -1.322917 v -1.32292 -1.32291 h -1.322916 -1.322917 v -2.64584 -2.64583 h -1.322917 -1.322916 v -6.61458 -6.61459 h -1.322917 -1.322916 v -1.32292 -1.32291 h -1.322917 -1.322917 v -1.32292 -1.32292 h -1.322916 -1.322917 v -2.64583 -2.64583 h 1.322917 1.322916 v -3.96875 -3.96875 h 1.322917 1.322917 V 104.71012 94.126789 h -1.322917 -1.322917 v -2.645834 -2.645833 h 1.322917 1.322917 v -1.322917 -1.322916 h 2.645833 2.645833 v -1.322917 -1.322917 h 2.645833 2.645833 v 1.322917 1.322917 h 1.322917 1.322916 v 5.291666 5.291667 h 1.322917 1.322917 v -2.645833 -2.645834 h 1.322916 1.322917 v -1.322916 -1.322917 h 1.322916 1.322917 v -1.322917 -1.322916 h 1.322916 1.322917 v -1.322917 -1.322917 h 1.322917 1.322916 v -1.322917 -1.322917 h 10.583331 10.58333 v 1.322917 1.322917 h 1.32292 1.32292 v 1.322917 1.322917 h 1.32291 1.32292 v 1.322916 1.322917 h 2.64583 2.64584 v 1.322917 1.322916 h 1.32291 1.32292 v 1.322917 1.322917 h 1.32292 1.32291 v 1.322917 1.322916 h 1.32292 1.32292 v 2.645834 2.645834 h 2.64583 2.64583 v 1.32292 1.32291 h 2.64584 2.64583 v 1.32292 1.32292 h 2.64583 2.64584 v 1.32291 1.32292 h 1.32291 1.32292 v 5.29167 5.29166 h -1.32292 -1.32291 v 1.32292 1.32292 h -3.96875 -3.96875 v 1.32291 1.32292 h 1.32291 1.32292 v 10.58333 10.58334 h -1.32292 -1.32291 v 2.64583 2.64584 h -1.32292 -1.32292 v 1.32291 1.32292 h -1.32291 -1.32292 v 1.32292 1.32291 h -2.64583 -2.64584 v 1.32292 1.32292 h -6.61458 -6.61458 v -1.32292 -1.32292 h 6.61458 6.61458 v -1.32291 -1.32292 h 2.64584 2.64583 v -1.32292 -1.32291 h 1.32292 1.32291 v -2.64584 -2.64583 h 1.32292 1.32292 v -10.58334 -10.58333 h -1.32292 -1.32292 v -1.32292 -1.32291 h -9.26041 -9.26042 v -1.32292 -1.32292 h -2.64583 -2.64584 v -1.32291 -1.32292 h -1.32291 -1.32292 v 1.32292 1.32291 h -6.61458 -6.614584 v 1.32292 1.32292 h -1.322917 -1.322917 v 1.32291 1.32292 h -2.645833 -2.645833 v 2.64583 2.64584 h 1.322917 1.322916 v 6.61458 6.61459 h -1.322916 -1.322917 v -6.61459 -6.61458 h -3.96875 -3.968749 v 6.61458 6.61459 H 81.72107 80.398153 v -5.29167 -5.29167 h -3.968749 -3.96875 v 6.61459 6.61458 h 1.322917 1.322916 v 2.64583 2.64584 h 1.322917 1.322916 v 1.32291 1.32292 h 2.645833 2.645834 v 1.32292 1.32291 h 7.937499 7.9375 v 1.32292 1.32292 h -7.9375 -7.937499 z m -2.645834,-29.10417 v -1.32292 h 2.645834 2.645833 v -1.32291 -1.32292 h 2.645833 2.645833 v -1.32292 -1.32291 h 2.645833 2.645833 v -1.32292 -1.32292 h 1.322917 1.322917 v -1.32291 -1.32292 h 6.614584 6.61458 v -1.32292 -1.32291 h 2.64583 2.64584 v 1.32291 1.32292 h 1.32291 1.32292 v 1.32292 1.32291 h 14.55208 14.55209 v -5.29166 -5.29167 h -2.64584 -2.64583 v -1.32292 -1.32291 h -2.64583 -2.64584 v -1.32292 -1.32292 h -2.64583 -2.64583 v -1.32291 -1.32292 h -1.32292 -1.32292 v -2.645834 -2.645834 h -1.32291 -1.32292 v -1.322916 -1.322917 h -1.32292 -1.32291 v -1.322917 -1.322917 h -2.64584 -2.64583 v -1.322916 -1.322917 h -1.32292 -1.32291 v -1.322917 -1.322916 h -1.32292 -1.32292 V 84.866372 83.543455 H 104.21065 93.627319 v 1.322917 1.322917 h -1.322916 -1.322917 v 1.322916 1.322917 h -1.322917 -1.322916 v 1.322917 1.322916 H 87.012736 85.68982 v 2.645834 2.645833 h -1.322917 -1.322916 v 1.322917 1.322917 H 81.72107 80.398153 v 1.322914 1.32292 H 79.075237 77.75232 v -3.968751 -3.96875 h -2.645833 -2.645833 v 2.645833 2.645834 h 1.322917 1.322916 v 1.322914 1.32292 h -1.322916 -1.322917 v 1.32292 1.32291 h -1.322917 -1.322916 v 2.64584 2.64583 h 1.322916 1.322917 v 1.32292 1.32291 h -1.322917 -1.322916 v 1.32292 1.32292 h -1.322917 -1.322916 v 3.96875 3.96875 h -1.322917 -1.322917 v 2.64583 2.64583 h 1.322917 1.322917 v 1.32292 1.32292 h 6.614583 6.614582 z m -5.291666,-5.29167 v -1.32291 h -1.322916 -1.322917 v -1.32292 -1.32292 h 1.322917 1.322916 v 1.32292 1.32292 h 5.291666 5.291667 v 1.32291 1.32292 h -5.291667 -5.291666 z m -2.645833,-18.52083 v -1.32292 h 1.322917 1.322916 v -1.32291 -1.32292 h 1.322917 1.322916 v 1.32292 1.32291 h -1.322916 -1.322917 v 1.32292 1.32292 H 73.783571 72.460654 Z M 77.75232,88.835122 v -2.645833 h -2.645833 -2.645833 v 1.322916 1.322917 h -2.645833 -2.645833 v 1.322917 1.322916 h 5.291666 5.291666 z m 44.97916,46.302088 v -6.61459 h 1.32292 1.32292 v -1.32291 -1.32292 h 3.96875 3.96875 v 1.32292 1.32291 h 1.32291 1.32292 v 6.61459 6.61458 h -1.32292 -1.32291 v -6.61458 -6.61459 h -3.96875 -3.96875 v 6.61459 6.61458 h -1.32292 -1.32292 z"
         id="path118"
         inkscape:connector-curvature="0" />
      <path
         style="fill:#b74a4a;stroke-width:0.26458332"
         d="m 83.043987,158.94971 v -1.32292 H 80.398153 77.75232 v -1.32291 -1.32292 h -1.322916 -1.322917 v -1.32292 -1.32291 h -1.322916 -1.322917 v -2.64584 -2.64583 h -1.322917 -1.322916 v -6.61458 -6.61459 h -1.322917 -1.322916 v -1.32292 -1.32291 h -1.322917 -1.322917 v -1.32292 -1.32292 h -1.322916 -1.322917 v -2.64583 -2.64583 h 1.322917 1.322916 v -3.96875 -3.96875 h 1.322917 1.322917 V 104.71012 94.126789 h -1.322917 -1.322917 v -2.645834 -2.645833 h 1.322917 1.322917 v -1.322917 -1.322916 h 2.645833 2.645833 v -1.322917 -1.322917 h 2.645833 2.645833 v 1.322917 1.322917 h 1.322917 1.322916 v 5.291666 5.291667 h 1.322917 1.322917 v -2.645833 -2.645834 h 1.322916 1.322917 v -1.322916 -1.322917 h 1.322916 1.322917 v -1.322917 -1.322916 h 1.322916 1.322917 v -1.322917 -1.322917 h 1.322917 1.322916 v -1.322917 -1.322917 h 10.583331 10.58333 v 1.322917 1.322917 h 1.32292 1.32292 v 1.322917 1.322917 h 1.32291 1.32292 v 1.322916 1.322917 h 2.64583 2.64584 v 1.322917 1.322916 h 1.32291 1.32292 v 1.322917 1.322917 h 1.32292 1.32291 v 1.322917 1.322916 h 1.32292 1.32292 v 2.645834 2.645834 h 2.64583 2.64583 v 1.32292 1.32291 h 2.64584 2.64583 v 1.32292 1.32292 h 2.64583 2.64584 v 1.32291 1.32292 h 1.32291 1.32292 v 5.29167 5.29166 h -1.32292 -1.32291 v 1.32292 1.32292 h -3.96875 -3.96875 v 1.32291 1.32292 h 1.32291 1.32292 v 10.58333 10.58334 h -1.32292 -1.32291 v 2.64583 2.64584 h -1.32292 -1.32292 v 1.32291 1.32292 h -1.32291 -1.32292 v 1.32292 1.32291 h -2.64583 -2.64584 v 1.32292 1.32292 h -6.61458 -6.61458 v -1.32292 -1.32292 h 6.61458 6.61458 v -1.32291 -1.32292 h 2.64584 2.64583 v -1.32292 -1.32291 h 1.32292 1.32291 v -2.64584 -2.64583 h 1.32292 1.32292 v -10.58334 -10.58333 h -1.32292 -1.32292 v -1.32292 -1.32291 h -9.26041 -9.26042 v -1.32292 -1.32292 h -2.64583 -2.64584 v -1.32291 -1.32292 h -1.32291 -1.32292 v 1.32292 1.32291 h -6.61458 -6.614584 v 1.32292 1.32292 h -1.322917 -1.322917 v 1.32291 1.32292 h -2.645833 -2.645833 v 1.32292 1.32291 H 88.335653 85.68982 v 1.32292 1.32292 h -2.645833 -2.645834 v 1.32291 1.32292 h -3.968749 -3.96875 v 6.61459 6.61458 h 1.322917 1.322916 v 2.64583 2.64584 h 1.322917 1.322916 v 1.32291 1.32292 h 2.645833 2.645834 v 1.32292 1.32291 h 7.937499 7.9375 v 1.32292 1.32292 h -7.9375 -7.937499 z m -2.645834,-29.10417 v -1.32292 h 2.645834 2.645833 v -1.32291 -1.32292 h 2.645833 2.645833 v -1.32292 -1.32291 h 2.645833 2.645833 v -1.32292 -1.32292 h 1.322917 1.322917 v -1.32291 -1.32292 h 6.614584 6.61458 v -1.32292 -1.32291 h 2.64583 2.64584 v 1.32291 1.32292 h 1.32291 1.32292 v 1.32292 1.32291 h 14.55208 14.55209 v -5.29166 -5.29167 h -2.64584 -2.64583 v -1.32292 -1.32291 h -2.64583 -2.64584 v -1.32292 -1.32292 h -2.64583 -2.64583 v -1.32291 -1.32292 h -1.32292 -1.32292 v -2.645834 -2.645834 h -1.32291 -1.32292 v -1.322916 -1.322917 h -1.32292 -1.32291 v -1.322917 -1.322917 h -2.64584 -2.64583 v -1.322916 -1.322917 h -1.32292 -1.32291 v -1.322917 -1.322916 h -1.32292 -1.32292 V 84.866372 83.543455 H 104.21065 93.627319 v 1.322917 1.322917 h -1.322916 -1.322917 v 1.322916 1.322917 h -1.322917 -1.322916 v 1.322917 1.322916 H 87.012736 85.68982 v 2.645834 2.645833 h -1.322917 -1.322916 v 1.322917 1.322917 H 81.72107 80.398153 v 1.322914 1.32292 H 79.075237 77.75232 v -3.968751 -3.96875 h -2.645833 -2.645833 v 2.645833 2.645834 h 1.322917 1.322916 v 1.322914 1.32292 h -1.322916 -1.322917 v 1.32292 1.32291 h -1.322917 -1.322916 v 2.64584 2.64583 h 1.322916 1.322917 v 1.32292 1.32291 h -1.322917 -1.322916 v 1.32292 1.32292 h -1.322917 -1.322916 v 3.96875 3.96875 h -1.322917 -1.322917 v 2.64583 2.64583 h 1.322917 1.322917 v 1.32292 1.32292 h 6.614583 6.614582 z m -5.291666,-5.29167 v -1.32291 h -1.322916 -1.322917 v -1.32292 -1.32292 h 1.322917 1.322916 v 1.32292 1.32292 h 5.291666 5.291667 v 1.32291 1.32292 h -5.291667 -5.291666 z m -2.645833,-18.52083 v -1.32292 h 1.322917 1.322916 v -1.32291 -1.32292 h 1.322917 1.322916 v 1.32292 1.32291 h -1.322916 -1.322917 v 1.32292 1.32292 H 73.783571 72.460654 Z M 77.75232,88.835122 v -2.645833 h -2.645833 -2.645833 v 1.322916 1.322917 h -2.645833 -2.645833 v 1.322917 1.322916 h 5.291666 5.291666 z"
         id="path116"
         inkscape:connector-curvature="0" />
      <path
         style="fill:#8e3852;stroke-width:0.26458332"
         d="m 67.168988,103.38721 v -9.260421 h -1.322917 -1.322917 v -2.645834 -2.645833 h 1.322917 1.322917 v -1.322917 -1.322916 h 2.645833 2.645833 v -1.322917 -1.322917 h 2.645833 2.645833 v 1.322917 1.322917 h 1.322917 1.322916 v 7.9375 7.937501 H 79.075237 77.75232 v -7.937501 -7.9375 h -2.645833 -2.645833 v 1.322916 1.322917 h -2.645833 -2.645833 v 2.645833 2.645834 h 1.322916 1.322917 v 9.260421 9.26041 h -1.322917 -1.322916 z"
         id="path114"
         inkscape:connector-curvature="0" />
    </g>
  </g>
</svg>
