<?xml version="1.0" encoding="UTF-8" standalone="no"?>
<!-- Created with Inkscape (http://www.inkscape.org/) -->

<svg
   xmlns:dc="http://purl.org/dc/elements/1.1/"
   xmlns:cc="http://creativecommons.org/ns#"
   xmlns:rdf="http://www.w3.org/1999/02/22-rdf-syntax-ns#"
   xmlns:svg="http://www.w3.org/2000/svg"
   xmlns="http://www.w3.org/2000/svg"
   xmlns:sodipodi="http://sodipodi.sourceforge.net/DTD/sodipodi-0.dtd"
   xmlns:inkscape="http://www.inkscape.org/namespaces/inkscape"
   width="89.958336mm"
   height="79.375mm"
   viewBox="0 0 89.958336 79.375"
   version="1.1"
   id="svg3817"
   inkscape:version="0.92.1 r15371"
   sodipodi:docname="logoSVG.svg">
  <defs
     id="defs3811" />
  <sodipodi:namedview
     id="base"
     pagecolor="#ffffff"
     bordercolor="#666666"
     borderopacity="1.0"
     inkscape:pageopacity="0.0"
     inkscape:pageshadow="2"
     inkscape:zoom="0.35"
     inkscape:cx="3691.4284"
     inkscape:cy="-1227.1429"
     inkscape:document-units="mm"
     inkscape:current-layer="layer1"
     showgrid="false"
     inkscape:window-width="3840"
     inkscape:window-height="2004"
     inkscape:window-x="-16"
     inkscape:window-y="-16"
     inkscape:window-maximized="1" />
  <metadata
     id="metadata3814">
    <rdf:RDF>
      <cc:Work
         rdf:about="">
        <dc:format>image/svg+xml</dc:format>
        <dc:type
           rdf:resource="http://purl.org/dc/dcmitype/StillImage" />
        <dc:title></dc:title>
      </cc:Work>
    </rdf:RDF>
  </metadata>
  <g
     inkscape:label="Layer 1"
     inkscape:groupmode="layer"
     id="layer1"
     transform="translate(1033.7648,255.22322)">
    <g
       id="g3767"
       transform="matrix(0.26458333,0,0,0.26458333,-1041.8254,-263.77603)">
      <path
         style="fill:#feeac8"
         d="m 110.46512,327.32558 v -5 h -10 -10.000003 v -5 -5 h -5 -5 v -5 -5 h -5 -5 v -10 -10 h -5 -5 v -25 -25 h -5 -5 v -5 -5 h -5 -5 v -5 -5 h -5 -5 v -10 -10 h 5 5 v -15 -15 h 5 5 v -40 -39.999999 h -5 -5 v -10 -10 h 5 5 v -5 -5 h 10 10 v -5 -5 h 10 10 v 5 5 h 5 5.000003 v 20 20 h 5 5 v -10 -10 h 5 5 v -5 -5 h 5 5 v -5 -5 h 5 5 v -5 -5 h 5 5 v -5 -5 h 40 40 v 5 5 h 5 5 v 5 5 h 5 5 v 5 5 h 10 10 v 5 5 h 5 5 v 5 5 h 5 5 v 5 5 h 5 5 v 9.999999 10 h 10 10 v 5 5 h 10 10 v 5 5 h 10 10 v 5 5 h 5 5 v 20 20 h -5 -5 v 5 5 h -15 -15 v 5 5 h 5 5 v 40 40 h -5 -5 v 10 10 h -5 -5 v 5 5 h -5 -5 v 5 5 h -10 -10 v 5 5 h -90 -90 z"
         id="path3789"
         inkscape:connector-curvature="0" />
      <path
         style="fill:#f4c4a6"
         d="m 110.46512,327.32558 v -5 h -10 -10.000003 v -5 -5 h -5 -5 v -5 -5 h -5 -5 v -10 -10 h -5 -5 v -25 -25 h -5 -5 v -5 -5 h -5 -5 v -5 -5 h -5 -5 v -10 -10 h 5 5 v -15 -15 h 5 5 v -40 -39.999999 h -5 -5 v -10 -10 h 5 5 v -5 -5 h 10 10 v -5 -5 h 10 10 v 5 5 h 5 5.000003 v 20 20 h 5 5 v -10 -10 h 5 5 v -5 -5 h 5 5 v -5 -5 h 5 5 v -5 -5 h 5 5 v -5 -5 h 40 40 v 5 5 h 5 5 v 5 5 h 5 5 v 5 5 h 10 10 v 5 5 h 5 5 v 5 5 h 5 5 v 5 5 h 5 5 v 9.999999 10 h 10 10 v 5 5 h 10 10 v 5 5 h 10 10 v 5 5 h 5 5 v 20 20 h -5 -5 v 5 5 h -15 -15 v 5 5 h 5 5 v 40 40 h -5 -5 v 10 10 h -5 -5 v 5 5 h -5 -5 v 5 5 h -10 -10 v 5 5 h -90 -90 z m 60,-40 v -35 h 5 5 v -5 -5 h 25 25 v 5 5 h 5 5 v 35 35 h 25 25 v -5 -5 h 10 10 v -25 -25 h -25 -25 v -25 -25 h 5 5 v -5 -5 h -35 -35 v 5 5 h -15 -15 v 5 5 h -10 -10 v 25 25 h -30 -30.000003 v 20 20 h 10.000003 10 v 5 5 h 30 30 z"
         id="path3787"
         inkscape:connector-curvature="0" />
      <path
         style="fill:#fee256"
         d="m 110.46512,327.32558 v -5 h -10 -10.000003 v -5 -5 h -5 -5 v -5 -5 h -5 -5 v -10 -10 h -5 -5 v -25 -25 h -5 -5 v -5 -5 h -5 -5 v -5 -5 h -5 -5 v -10 -10 h 5 5 v -15 -15 h 5 5 v -40 -39.999999 h -5 -5 v -10 -10 h 5 5 v -5 -5 h 10 10 v -5 -5 h 10 10 v 5 5 h 5 5.000003 v 20 20 h 5 5 v -10 -10 h 5 5 v -5 -5 h 5 5 v -5 -5 h 5 5 v -5 -5 h 5 5 v -5 -5 h 40 40 v 5 5 h 5 5 v 5 5 h 5 5 v 5 5 h 10 10 v 5 5 h 5 5 v 5 5 h 5 5 v 5 5 h 5 5 v 9.999999 10 h 10 10 v 5 5 h 10 10 v 5 5 h 10 10 v 5 5 h 5 5 v 20 20 h -5 -5 v 5 5 h -15 -15 v 5 5 h 5 5 v 40 40 h -5 -5 v 10 10 h -5 -5 v 5 5 h -5 -5 v 5 5 h -10 -10 v 5 5 h -90 -90 z m 60,-40 v -35 h 5 5 v -5 -5 h 25 25 v 5 5 h 5 5 v 35 35 h 25 25 v -5 -5 h 10 10 v -5 -5 h 5 5 v -10 -10 h 5 5 v -40 -40 h -5 -5 v -5 -5 h -35 -35 v -5 -5 h -10 -10 v -5 -5 h -5 -5 v 5 5 h -25 -25 v 5 5 h -5 -5 v 5 5 h -10 -10 v 10 10 h 5 5 v 25 25 h -25 -25 v -20 -20 h -15.000003 -15 v 25 25 h 5 5 v 10 10 h 5 5 v 5 5 h 10.000003 10 v 5 5 h 30 30 z m 90,-50 v -25 h 5 5 v -5 -5 h 15 15 v 5 5 h 5 5 v 25 25 h -25 -25 z"
         id="path3785"
         inkscape:connector-curvature="0" />
      <path
         style="fill:#fe89aa"
         d="m 110.46512,327.32558 v -5 h -10 -10.000003 v -5 -5 h -5 -5 v -5 -5 h -5 -5 v -10 -10 h -5 -5 v -25 -25 h -5 -5 v -5 -5 h -5 -5 v -5 -5 h -5 -5 v -10 -10 h 5 5 v -15 -15 h 5 5 v -40 -39.999999 h -5 -5 v -10 -10 h 5 5 v -5 -5 h 10 10 v -5 -5 h 10 10 v 5 5 h 5 5.000003 v 20 20 h 5 5 v -10 -10 h 5 5 v -5 -5 h 5 5 v -5 -5 h 5 5 v -5 -5 h 5 5 v -5 -5 h 40 40 v 5 5 h 5 5 v 5 5 h 5 5 v 5 5 h 10 10 v 5 5 h 5 5 v 5 5 h 5 5 v 5 5 h 5 5 v 9.999999 10 h 10 10 v 5 5 h 10 10 v 5 5 h 10 10 v 5 5 h 5 5 v 20 20 h -5 -5 v 5 5 h -15 -15 v 5 5 h 5 5 v 40 40 h -5 -5 v 10 10 h -5 -5 v 5 5 h -5 -5 v 5 5 h -10 -10 v 5 5 h -90 -90 z m 60,-40 v -35 h 5 5 v -5 -5 h 25 25 v 5 5 h 5 5 v 35 35 h 25 25 v -5 -5 h 10 10 v -5 -5 h 5 5 v -10 -10 h 5 5 v -40 -40 h -5 -5 v -5 -5 h -35 -35 v -5 -5 h -10 -10 v -5 -5 h -5 -5 v 5 5 h -25 -25 v 5 5 h -5 -5 v 5 5 h -10 -10 v 10 10 h 5 5 v 25 25 h -25 -25 v -20 -20 h -15.000003 -15 v 25 25 h 5 5 v 10 10 h 5 5 v 5 5 h 10.000003 10 v 5 5 h 30 30 z m 90,-50 v -25 h 5 5 v -5 -5 h 15 15 v 5 5 h 5 5 v 25 25 h -25 -25 z m -30,60 v -5 h -5 -5 v 5 5 h 5 5 z m -120,-90 v -5 h -15.000003 -15 v -5 -5 h -5 -5 v -5 -5 h -5 -5 v 10 10 h 5 5 v 5 5 h 20 20.000003 z m 30,-30 v -5 h -5 -5 v 5 5 h 5 5 z m 210,0 v -5 h 5 5 v -15 -15 h -5 -5 v 5 5 h -5 -5 v -5 -5 h -10 -10 v -5 -5 h -5 -5 v -5 -5 h -5 -5 v -5 -5 h -5 -5 v -5 -5 h -10 -10 v -9.999999 -10 h -5 -5 v -5 -5 h -5 -5 v -5 -5 h -5 -5 v -5 -5 h -5 -5 v -5 -5 h -10 -10 v 5 5 h -5 -5 v -5 -5 h -20 -20 v 10 10 h -5 -5 v 5 5 h -5 -5 v 5 5 h -5 -5 v 5 5 h 10 10 v 5 4.999999 h -5 -5 v 5 5 h 5 5 v 5 5 h 5 5 v 10 10 h 5 5 v 5 5 h 5 5 v 5 5 h -5 -5 v 5 5 h 5 5 v -5 -5 h 5 5 v -5 -5 h 25 25 v 5 5 h 5 5 v 5 5 h 15 15 v 5 5 h 35 35 z m -170,-30 v -5 h -5 -5 v -5 -5 h 5 5 v 5 5 h 5 5 v 5 5 h -5 -5 z m 110,0 v -5 h 5 5 v 5 5 h -5 -5 z m -70,-10 v -5 h 5 5 v 5 5 h -5 -5 z m -60,-20 v -5 h -5 -5 v -5 -5 h 5 5 v 5 5 h 5 5 v 5 5 h -5 -5 z m 30,-10 v -5 h 5 5 v 5 5 h -5 -5 z m 50,-9.999999 v -5 h 5 5 v 5 4.999999 h -5 -5 z m -90,-20 v -5 h 5 5 v 5 5 h -5 -5 z m -40,89.999999 v -5 h -5 -5 v 5 5 h 5 5 z m -10,-20 v -5 h -5.000003 -5 v 5 5 h 5 5.000003 z m 40,0 v -5 h -5 -5 v 5 5 h 5 5 z m -20,-20 v -5 h -5 -5 v 5 5 h 5 5 z"
         id="path3783"
         inkscape:connector-curvature="0" />
      <path
         style="fill:#8ea8eb"
         d="m 110.46512,327.32558 v -5 h -10 -10.000003 v -5 -5 h -5 -5 v -5 -5 h -5 -5 v -10 -10 h -5 -5 v -25 -25 h -5 -5 v -5 -5 h -5 -5 v -5 -5 h -5 -5 v -10 -10 h 5 5 v -15 -15 h 5 5 v -40 -39.999999 h -5 -5 v -10 -10 h 5 5 v -5 -5 h 10 10 v -5 -5 h 10 10 v 5 5 h 5 5.000003 v 20 20 h 5 5 v -10 -10 h 5 5 v -5 -5 h 5 5 v -5 -5 h 5 5 v -5 -5 h 5 5 v -5 -5 h 40 40 v 5 5 h 5 5 v 5 5 h 5 5 v 5 5 h 10 10 v 5 5 h 5 5 v 5 5 h 5 5 v 5 5 h 5 5 v 9.999999 10 h 10 10 v 5 5 h 10 10 v 5 5 h 10 10 v 5 5 h 5 5 v 20 20 h -5 -5 v 5 5 h -15 -15 v 5 5 h 5 5 v 40 40 h -5 -5 v 10 10 h -5 -5 v 5 5 h -5 -5 v 5 5 h -10 -10 v 5 5 h -30 -30 v -20 -20 h -5 -5 v -5 -5 h -5 -5 v -15 -15 h -5 -5 v 5 5 h -5 -5 v -5 -5 h -5 -5 v 35 35 h 5 5 v -10 -10 h 5 5 v 5 5 h 5 5 v -5 -5 h 5 5 v 15 15 h -5 -5 v -5 -5 h -5 -5 v 5 5 h -45 -45 z m 60,-40 v -35 h 5 5 v -5 -5 h 25 25 v 5 5 h -5 -5 v 5 5 h 5 5 v -5 -5 h 5 5 v 35 35 h 25 25 v -5 -5 h 10 10 v -5 -5 h 5 5 v -10 -10 h 5 5 v -40 -40 h -5 -5 v -5 -5 h -35 -35 v -5 -5 h -10 -10 v -5 -5 h -5 -5 v 5 5 h -25 -25 v 5 5 h -5 -5 v 5 5 h -10 -10 v 10 10 h 5 5 v 25 25 h -25 -25 v -20 -20 h -15.000003 -15 v 25 25 h 5 5 v 10 10 h 5 5 v 5 5 h 10.000003 10 v 5 5 h 30 30 z m 90,-50 v -25 h 5 5 v -5 -5 h 15 15 v 5 5 h 5 5 v 25 25 h -25 -25 z m -30,40 v -5 h -5 -5 v 5 5 h 5 5 z m -120,-70 v -5 h -15.000003 -15 v -5 -5 h -5 -5 v -5 -5 h -5 -5 v 10 10 h 5 5 v 5 5 h 20 20.000003 z m 30,-30 v -5 h -5 -5 v 5 5 h 5 5 z m 210,0 v -5 h 5 5 v -15 -15 h -5 -5 v 5 5 h -5 -5 v -5 -5 h -10 -10 v -5 -5 h -5 -5 v -5 -5 h -5 -5 v -5 -5 h -5 -5 v -5 -5 h -10 -10 v -9.999999 -10 h -5 -5 v -5 -5 h -5 -5 v -5 -5 h -5 -5 v -5 -5 h -5 -5 v -5 -5 h -10 -10 v 5 5 h -5 -5 v -5 -5 h -20 -20 v 10 10 h -5 -5 v 5 5 h -5 -5 v 5 5 h -5 -5 v 5 5 h 10 10 v 5 4.999999 h -5 -5 v 5 5 h 5 5 v 5 5 h 5 5 v 10 10 h 5 5 v 5 5 h 5 5 v 5 5 h -5 -5 v 5 5 h 5 5 v -5 -5 h 5 5 v -5 -5 h 25 25 v 5 5 h 5 5 v 5 5 h 15 15 v 5 5 h 35 35 z m -170,-30 v -5 h -5 -5 v -5 -5 h 5 5 v 5 5 h 5 5 v 5 5 h -5 -5 z m 110,0 v -5 h 5 5 v 5 5 h -5 -5 z m -70,-10 v -5 h 5 5 v 5 5 h -5 -5 z m -60,-20 v -5 h -5 -5 v -5 -5 h 5 5 v 5 5 h 5 5 v 5 5 h -5 -5 z m 30,-10 v -5 h 5 5 v 5 5 h -5 -5 z m 50,-9.999999 v -5 h 5 5 v 5 4.999999 h -5 -5 z m -90,-20 v -5 h 5 5 v 5 5 h -5 -5 z m -40,89.999999 v -5 h -5 -5 v 5 5 h 5 5 z m -10,-20 v -5 h -5.000003 -5 v 5 5 h 5 5.000003 z m 40,0 v -5 h -5 -5 v 5 5 h 5 5 z m -20,-20 v -5 h -5 -5 v 5 5 h 5 5 z M 90.465117,87.325581 v -5 h -10 -10 v 5 5 h 10 10 z m 0,-25 v -10 h -10 -10 v 5 5 h 5 5 v 5 5 h 5 5 z M 190.46512,282.32558 v -10 h 5 5 v 10 10 h -5 -5 z"
         id="path3781"
         inkscape:connector-curvature="0" />
      <path
         style="fill:#feaa44"
         d="m 110.46512,327.32558 v -5 h -10 -10.000003 v -5 -5 h -5 -5 v -5 -5 h -5 -5 v -10 -10 h -5 -5 v -25 -25 h -5 -5 v -5 -5 h -5 -5 v -5 -5 h -5 -5 v -10 -10 h 5 5 v -15 -15 h 5 5 v -40 -39.999999 h -5 -5 v -10 -10 h 5 5 v -5 -5 h 10 10 v -5 -5 h 10 10 v 5 5 h 5 5.000003 v 20 20 h 5 5 v -10 -10 h 5 5 v -5 -5 h 5 5 v -5 -5 h 5 5 v -5 -5 h 5 5 v -5 -5 h 40 40 v 5 5 h 5 5 v 5 5 h 5 5 v 5 5 h 10 10 v 5 5 h 5 5 v 5 5 h 5 5 v 5 5 h 5 5 v 9.999999 10 h 10 10 v 5 5 h 10 10 v 5 5 h 10 10 v 5 5 h 5 5 v 20 20 h -5 -5 v 5 5 h -15 -15 v 5 5 h 5 5 v 40 40 h -5 -5 v 10 10 h -5 -5 v 5 5 h -5 -5 v 5 5 h -10 -10 v 5 5 h -30 -30 v -20 -20 h -5 -5 v -5 -5 h -5 -5 v -15 -15 h -5 -5 v 5 5 h -5 -5 v -5 -5 h -5 -5 v 35 35 h 5 5 v -10 -10 h 5 5 v 5 5 h 5 5 v -5 -5 h 5 5 v 15 15 h -5 -5 v -5 -5 h -5 -5 v 5 5 h -45 -45 z m 60,-40 v -35 h 5 5 v -5 -5 h 25 25 v 5 5 h -5 -5 v 5 5 h 5 5 v -5 -5 h 5 5 v 35 35 h 25 25 v -5 -5 h 10 10 v -5 -5 h 5 5 v -10 -10 h 5 5 v -40 -40 h -5 -5 v -5 -5 h -35 -35 v -5 -5 h -10 -10 v -5 -5 h -5 -5 v 5 5 h -25 -25 v 5 5 h -5 -5 v 5 5 h -10 -10 v 10 10 h -15 -15 v 25 25 h -5 -5 v -20 -20 h -15.000003 -15 v 25 25 h 5 5 v 10 10 h 5 5 v 5 5 h 10.000003 10 v 5 5 h 30 30 z m -30,-40 v -25 h 5 5 v 25 25 h -5 -5 z m 120,-10 v -25 h 5 5 v -5 -5 h 15 15 v 5 5 h 5 5 v 25 25 h -5 -5 v -25 -25 h -15 -15 v 25 25 h -5 -5 z m -30,40 v -5 h -5 -5 v 5 5 h 5 5 z m -120,-70 v -5 h -15.000003 -15 v -5 -5 h -5 -5 v -5 -5 h -5 -5 v 10 10 h 5 5 v 5 5 h 20 20.000003 z m 30,-30 v -5 h -5 -5 v 5 5 h 5 5 z m 210,0 v -5 h 5 5 v -15 -15 h -5 -5 v 5 5 h -5 -5 v -5 -5 h -10 -10 v -5 -5 h -5 -5 v -5 -5 h -5 -5 v -5 -5 h -5 -5 v -5 -5 h -10 -10 v -9.999999 -10 h -5 -5 v -5 -5 h -5 -5 v -5 -5 h -5 -5 v -5 -5 h -5 -5 v -5 -5 h -10 -10 v 5 5 h -5 -5 v -5 -5 h -20 -20 v 10 10 h -5 -5 v 5 5 h -5 -5 v 5 5 h -5 -5 v 5 5 h 10 10 v 5 4.999999 h -5 -5 v 5 5 h 5 5 v 5 5 h 5 5 v 10 10 h 5 5 v 5 5 h 5 5 v 5 5 h -5 -5 v 5 5 h 5 5 v -5 -5 h 5 5 v -5 -5 h 25 25 v 5 5 h 5 5 v 5 5 h 15 15 v 5 5 h 35 35 z m -170,-30 v -5 h -5 -5 v -5 -5 h 5 5 v 5 5 h 5 5 v 5 5 h -5 -5 z m 110,0 v -5 h 5 5 v 5 5 h -5 -5 z m -70,-10 v -5 h 5 5 v 5 5 h -5 -5 z m -60,-20 v -5 h -5 -5 v -5 -5 h 5 5 v 5 5 h 5 5 v 5 5 h -5 -5 z m 30,-10 v -5 h 5 5 v 5 5 h -5 -5 z m 50,-9.999999 v -5 h 5 5 v 5 4.999999 h -5 -5 z m -90,-20 v -5 h 5 5 v 5 5 h -5 -5 z m -40,89.999999 v -5 h -5 -5 v 5 5 h 5 5 z m -10,-20 v -5 h -5.000003 -5 v 5 5 h 5 5.000003 z m 40,0 v -5 h -5 -5 v 5 5 h 5 5 z m -20,-20 v -5 h -5 -5 v 5 5 h 5 5 z M 90.465117,87.325581 v -5 h -10 -10 v 5 5 h 10 10 z m 0,-25 v -10 h -10 -10 v 5 5 h 5 5 v 5 5 h 5 5 z M 190.46512,282.32558 v -10 h 5 5 v 10 10 h -5 -5 z"
         id="path3779"
         inkscape:connector-curvature="0" />
      <path
         style="fill:#f15b86"
         d="m 110.46512,327.32558 v -5 h -10 -10.000003 v -5 -5 h -5 -5 v -5 -5 h -5 -5 v -10 -10 h -5 -5 v -25 -25 h -5 -5 v -5 -5 h -5 -5 v -5 -5 h -5 -5 v -10 -10 h 5 5 v -15 -15 h 5 5 v -40 -39.999999 h -5 -5 v -10 -10 h 5 5 v -5 -5 h 10 10 v -5 -5 h 10 10 v 5 5 h 5 5.000003 v 20 20 h 5 5 v -10 -10 h 5 5 v -5 -5 h 5 5 v -5 -5 h 5 5 v -5 -5 h 5 5 v -5 -5 h 40 40 v 5 5 h 5 5 v 5 5 h 5 5 v 5 5 h 10 10 v 5 5 h 5 5 v 5 5 h 5 5 v 5 5 h 5 5 v 9.999999 10 h 10 10 v 5 5 h 10 10 v 5 5 h 10 10 v 5 5 h 5 5 v 20 20 h -5 -5 v 5 5 h -15 -15 v 5 5 h 5 5 v 40 40 h -5 -5 v 10 10 h -5 -5 v 5 5 h -5 -5 v 5 5 h -10 -10 v 5 5 h -30 -30 v -20 -20 h -5 -5 v -5 -5 h -5 -5 v -15 -15 h -5 -5 v 5 5 h -5 -5 v -5 -5 h -5 -5 v 35 35 h 5 5 v -10 -10 h 5 5 v 5 5 h 5 5 v -5 -5 h 5 5 v 15 15 h -5 -5 v -5 -5 h -5 -5 v 5 5 h -45 -45 z m 60,-40 v -35 h 5 5 v -5 -5 h 25 25 v 5 5 h -5 -5 v 5 5 h 5 5 v -5 -5 h 5 5 v 35 35 h 25 25 v -5 -5 h 10 10 v -5 -5 h 5 5 v -10 -10 h 5 5 v -40 -40 h -5 -5 v -5 -5 h -35 -35 v -5 -5 h 55 55 v -20 -20 h -10 -10 v -5 -5 h -10 -10 v -5 -5 h -10 -10 v -5 -5 h -5 -5 v -10 -9.999999 h -5 -5 v -5 -5 h -5 -5 v -5 -5 h -10 -10 v -5 -5 h -5 -5 v -5 -5 h -5 -5 v -5 -5 h -40 -40 v 5 5 h -5 -5 v 5 5 h -5 -5 v 5 5 h -5 -5 v 10 10 h -5 -5 v 5 4.999999 h -5 -5 v 5 5 h -5.000003 -5 v 5 5 h -5 -5 v 5 5 h -5 -5 v 10 10 h -5 -5 v 5 5 h -5 -5 v 15 15 h -5 -5 v 10 10 h 5 5 v 5 5 h 25 25.000003 v -5 -5 h 10 10 v -5 -5 h 10 10 v 10 10 h -15 -15 v 25 25 h -5 -5 v -20 -20 h -15.000003 -15 v 25 25 h 5 5 v 10 10 h 5 5 v 5 5 h 10.000003 10 v 5 5 h 30 30 z m -30,-40 v -25 h 5 5 v 25 25 h -5 -5 z m 120,-10 v -25 h 5 5 v -5 -5 h 15 15 v 5 5 h 5 5 v 25 25 h -5 -5 v -25 -25 h -15 -15 v 25 25 h -5 -5 z m -180.000003,-40 v -5 h -5 -5 v -5 -5 h 5 5 v 5 5 h 20.000003 20 v 5 5 h -20 -20.000003 z m 60.000003,0 v -5 h 10 10 v -5 -5 h 5 5 v -5 -5 h 25 25 v -5 -5 h 10 10 v 5 5 h 5 5 v 5 5 h -10 -10 v -5 -5 h -5 -5 v 5 5 h -25 -25 v 5 5 h -5 -5 v 5 5 h -10 -10 z m 90,80 v -5 h -5 -5 v 5 5 h 5 5 z M 90.465117,87.325581 v -5 h -10 -10 v 5 5 h 10 10 z m 0,-25 v -10 h -10 -10 v 5 5 h 5 5 v 5 5 h 5 5 z M 190.46512,282.32558 v -10 h 5 5 v 10 10 h -5 -5 z"
         id="path3777"
         inkscape:connector-curvature="0" />
      <path
         style="fill:#d24972"
         d="m 110.46512,327.32558 v -5 h -10 -10.000003 v -5 -5 h -5 -5 v -5 -5 h -5 -5 v -10 -10 h -5 -5 v -25 -25 h -5 -5 v -5 -5 h -5 -5 v -5 -5 h -5 -5 v -10 -10 h 5 5 v -15 -15 h 5 5 v -40 -39.999999 h -5 -5 v -10 -10 h 5 5 v -5 -5 h 10 10 v -5 -5 h 10 10 v 5 5 h 5 5.000003 v 20 20 h 5 5 v -10 -10 h 5 5 v -5 -5 h 5 5 v -5 -5 h 5 5 v -5 -5 h 5 5 v -5 -5 h 40 40 v 5 5 h 5 5 v 5 5 h 5 5 v 5 5 h 10 10 v 5 5 h 5 5 v 5 5 h 5 5 v 5 5 h 5 5 v 9.999999 10 h 10 10 v 5 5 h 10 10 v 5 5 h 10 10 v 5 5 h 5 5 v 20 20 h -5 -5 v 5 5 h -15 -15 v 5 5 h 5 5 v 40 40 h -5 -5 v 10 10 h -5 -5 v 5 5 h -5 -5 v 5 5 h -10 -10 v 5 5 h -30 -30 v -20 -20 h -5 -5 v -5 -5 h 5 5 v -15 -15 h -25 -25 v 40 40 h -35 -35 z m 60,-40 v -35 h 5 5 v -5 -5 h 25 25 v 5 5 h 5 5 v 35 35 h 25 25 v -5 -5 h 10 10 v -5 -5 h 5 5 v -10 -10 h 5 5 v -40 -40 h -5 -5 v -5 -5 h -35 -35 v -5 -5 h 55 55 v -20 -20 h -10 -10 v -5 -5 h -10 -10 v -5 -5 h -10 -10 v -5 -5 h -5 -5 v -10 -9.999999 h -5 -5 v -5 -5 h -5 -5 v -5 -5 h -10 -10 v -5 -5 h -5 -5 v -5 -5 h -5 -5 v -5 -5 h -40 -40 v 5 5 h -5 -5 v 5 5 h -5 -5 v 5 5 h -5 -5 v 10 10 h -5 -5 v 5 4.999999 h -5 -5 v 5 5 h -5.000003 -5 v 5 5 h -5 -5 v 5 5 h -5 -5 v 10 10 h -5 -5 v 5 5 h -5 -5 v 15 15 h -5 -5 v 10 10 h 5 5 v 5 5 h 25 25.000003 v -5 -5 h 10 10 v -5 -5 h 10 10 v 10 10 h -15 -15 v 25 25 h -5 -5 v -20 -20 h -15.000003 -15 v 25 25 h 5 5 v 10 10 h 5 5 v 5 5 h 10.000003 10 v 5 5 h 30 30 z m -30,-40 v -25 h 5 5 v 25 25 h -5 -5 z m 120,-10 v -25 h 5 5 v -5 -5 h 15 15 v 5 5 h 5 5 v 25 25 h -5 -5 v -25 -25 h -15 -15 v 25 25 h -5 -5 z m -180.000003,-40 v -5 h -5 -5 v -5 -5 h 5 5 v 5 5 h 20.000003 20 v 5 5 h -20 -20.000003 z m 60.000003,0 v -5 h 10 10 v -5 -5 h 5 5 v -5 -5 h 25 25 v -5 -5 h 10 10 v 5 5 h 5 5 v 5 5 h -10 -10 v -5 -5 h -5 -5 v 5 5 h -25 -25 v 5 5 h -5 -5 v 5 5 h -10 -10 z M 90.465117,87.325581 v -5 h -10 -10 v 5 5 h 10 10 z m 0,-25 v -10 h -10 -10 v 5 5 h 5 5 v 5 5 h 5 5 z"
         id="path3775"
         inkscape:connector-curvature="0" />
      <path
         style="fill:#4f5eaa"
         d="m 110.46512,327.32558 v -5 h -10 -10.000003 v -5 -5 h -5 -5 v -5 -5 h -5 -5 v -10 -10 h -5 -5 v -25 -25 h -5 -5 v -5 -5 h -5 -5 v -5 -5 h -5 -5 v -10 -10 h 5 5 v -15 -15 h 5 5 v -40 -39.999999 h -5 -5 v -10 -10 h 5 5 v -5 -5 h 10 10 v -5 -5 h 10 10 v 5 5 h 5 5.000003 v 20 20 h 5 5 v -10 -10 h 5 5 v -5 -5 h 5 5 v -5 -5 h 5 5 v -5 -5 h 5 5 v -5 -5 h 40 40 v 5 5 h 5 5 v 5 5 h 5 5 v 5 5 h 10 10 v 5 5 h 5 5 v 5 5 h 5 5 v 5 5 h 5 5 v 9.999999 10 h 10 10 v 5 5 h 10 10 v 5 5 h 10 10 v 5 5 h 5 5 v 20 20 h -5 -5 v 5 5 h -15 -15 v 5 5 h 5 5 v 40 40 h -5 -5 v 10 10 h -5 -5 v 5 5 h -5 -5 v 5 5 h -10 -10 v 5 5 h -25 -25 v -5 -5 h 25 25 v -5 -5 h 10 10 v -5 -5 h 5 5 v -10 -10 h 5 5 v -40 -40 h -5 -5 v -5 -5 h -35 -35 v -5 -5 h -10 -10 v -5 -5 h -5 -5 v 5 5 h -25 -25 v 5 5 h -5 -5 v 5 5 h -10 -10 v 10 10 h 5 5 v 25 25 h -5 -5 v -25 -25 h -15 -15 v 25 25 h -5 -5 v -20 -20 h -15.000003 -15 v 25 25 h 5 5 v 10 10 h 5 5 v 5 5 h 10.000003 10 v 5 5 h 30 30 v 5 5 h -30 -30 z m -10,-110 v -5 h 10 10 v -5 -5 h 10 10 v -5 -5 h 10 10 v -5 -5 h 5 5 v -5 -5 h 25 25 v -5 -5 h 10 10 v 5 5 h 5 5 v 5 5 h 55 55 v -20 -20 h -10 -10 v -5 -5 h -10 -10 v -5 -5 h -10 -10 v -5 -5 h -5 -5 v -10 -9.999999 h -5 -5 v -5 -5 h -5 -5 v -5 -5 h -10 -10 v -5 -5 h -5 -5 v -5 -5 h -5 -5 v -5 -5 h -40 -40 v 5 5 h -5 -5 v 5 5 h -5 -5 v 5 5 h -5 -5 v 10 10 h -5 -5 v 5 4.999999 h -5 -5 v 5 5 h -5.000003 -5 v -14.999999 -15 h -10 -10 v 10 9.999999 h 5 5 v 5 5 h -5 -5 v 5 5 h -5 -5 v 10 10 h 5 5 v 5 5 h -5 -5 v 5 5 h -5 -5 v 15 15 h -5 -5 v 10 10 h 5 5 v 5 5 h 25 25.000003 z m -20.000003,-20 v -5 h -5 -5 v -5 -5 h 5 5 v 5 5 h 20.000003 20 v 5 5 h -20 -20.000003 z m -10,-70 v -5 h 5 5 v -5 -5 h 5 5 v 5 5 h -5 -5 v 5 5 h -5 -5 z m 20,-64.999999 v -10 h -10 -10 v 5 5 h -10 -10 v 5 5 h 20 20 z M 260.46512,237.32558 v -25 h 5 5 v -5 -5 h 15 15 v 5 5 h 5 5 v 25 25 h -5 -5 v -25 -25 h -15 -15 v 25 25 h -5 -5 z"
         id="path3773"
         inkscape:connector-curvature="0" />
      <path
         style="fill:#b74a4a"
         d="m 110.46512,327.32558 v -5 h -10 -10.000003 v -5 -5 h -5 -5 v -5 -5 h -5 -5 v -10 -10 h -5 -5 v -25 -25 h -5 -5 v -5 -5 h -5 -5 v -5 -5 h -5 -5 v -10 -10 h 5 5 v -15 -15 h 5 5 v -40 -39.999999 h -5 -5 v -10 -10 h 5 5 v -5 -5 h 10 10 v -5 -5 h 10 10 v 5 5 h 5 5.000003 v 20 20 h 5 5 v -10 -10 h 5 5 v -5 -5 h 5 5 v -5 -5 h 5 5 v -5 -5 h 5 5 v -5 -5 h 40 40 v 5 5 h 5 5 v 5 5 h 5 5 v 5 5 h 10 10 v 5 5 h 5 5 v 5 5 h 5 5 v 5 5 h 5 5 v 9.999999 10 h 10 10 v 5 5 h 10 10 v 5 5 h 10 10 v 5 5 h 5 5 v 20 20 h -5 -5 v 5 5 h -15 -15 v 5 5 h 5 5 v 40 40 h -5 -5 v 10 10 h -5 -5 v 5 5 h -5 -5 v 5 5 h -10 -10 v 5 5 h -25 -25 v -5 -5 h 25 25 v -5 -5 h 10 10 v -5 -5 h 5 5 v -10 -10 h 5 5 v -40 -40 h -5 -5 v -5 -5 h -35 -35 v -5 -5 h -10 -10 v -5 -5 h -5 -5 v 5 5 h -25 -25 v 5 5 h -5 -5 v 5 5 h -10 -10 v 5 5 h -10 -10 v 5 5 h -10 -10 v 5 5 h -15.000003 -15 v 25 25 h 5 5 v 10 10 h 5 5 v 5 5 h 10.000003 10 v 5 5 h 30 30 v 5 5 h -30 -30 z m -10,-110 v -5 h 10 10 v -5 -5 h 10 10 v -5 -5 h 10 10 v -5 -5 h 5 5 v -5 -5 h 25 25 v -5 -5 h 10 10 v 5 5 h 5 5 v 5 5 h 55 55 v -20 -20 h -10 -10 v -5 -5 h -10 -10 v -5 -5 h -10 -10 v -5 -5 h -5 -5 v -10 -9.999999 h -5 -5 v -5 -5 h -5 -5 v -5 -5 h -10 -10 v -5 -5 h -5 -5 v -5 -5 h -5 -5 v -5 -5 h -40 -40 v 5 5 h -5 -5 v 5 5 h -5 -5 v 5 5 h -5 -5 v 10 10 h -5 -5 v 5 4.999999 h -5 -5 v 5 5 h -5.000003 -5 v -14.999999 -15 h -10 -10 v 10 9.999999 h 5 5 v 5 5 h -5 -5 v 5 5 h -5 -5 v 10 10 h 5 5 v 5 5 h -5 -5 v 5 5 h -5 -5 v 15 15 h -5 -5 v 10 10 h 5 5 v 5 5 h 25 25.000003 z m -20.000003,-20 v -5 h -5 -5 v -5 -5 h 5 5 v 5 5 h 20.000003 20 v 5 5 h -20 -20.000003 z m -10,-70 v -5 h 5 5 v -5 -5 h 5 5 v 5 5 h -5 -5 v 5 5 h -5 -5 z m 20,-64.999999 v -10 h -10 -10 v 5 5 h -10 -10 v 5 5 h 20 20 z"
         id="path3771"
         inkscape:connector-curvature="0" />
      <path
         style="fill:#8e3852"
         d="M 50.465117,117.32558 V 82.325581 h -5 -5 v -10 -10 h 5 5 v -5 -5 h 10 10 v -5 -5 h 10 10 v 5 5 h 5 5.000003 v 30 29.999999 h -5.000003 -5 v -29.999999 -30 h -10 -10 v 5 5 h -10 -10 v 10 10 h 5 5 v 34.999999 35 h -5 -5 z"
         id="path3769"
         inkscape:connector-curvature="0" />
    </g>
  </g>
</svg>
